<svg version="1.1" xmlns="http://www.w3.org/2000/svg" xmlns:xlink="http://www.w3.org/1999/xlink" preserveAspectRatio="xMidYMid meet" viewBox="0 0 1920 1080" id="el_oUEA_RQYx"><style>@-webkit-keyframes kf_el_7_cicdvYUKX_an_97_YeMTLH{0%{opacity: 1;}16.67%{opacity: 0;}33.33%{opacity: 1;}50%{opacity: 0;}66.67%{opacity: 1;}83.33%{opacity: 0;}100%{opacity: 1;}}@keyframes kf_el_7_cicdvYUKX_an_97_YeMTLH{0%{opacity: 1;}16.67%{opacity: 0;}33.33%{opacity: 1;}50%{opacity: 0;}66.67%{opacity: 1;}83.33%{opacity: 0;}100%{opacity: 1;}}@-webkit-keyframes kf_el_lP2M2rGd-9Y_an_tkK5GC-RM{0%{opacity: 1;}16.67%{opacity: 0;}33.33%{opacity: 1;}50%{opacity: 0;}66.67%{opacity: 1;}83.33%{opacity: 0;}100%{opacity: 1;}}@keyframes kf_el_lP2M2rGd-9Y_an_tkK5GC-RM{0%{opacity: 1;}16.67%{opacity: 0;}33.33%{opacity: 1;}50%{opacity: 0;}66.67%{opacity: 1;}83.33%{opacity: 0;}100%{opacity: 1;}}@-webkit-keyframes kf_el_WLUk-MTfOgi_an_jS7sYzE_4{0%{opacity: 1;}16.67%{opacity: 0;}33.33%{opacity: 1;}50%{opacity: 0;}66.67%{opacity: 1;}83.33%{opacity: 0;}100%{opacity: 1;}}@keyframes kf_el_WLUk-MTfOgi_an_jS7sYzE_4{0%{opacity: 1;}16.67%{opacity: 0;}33.33%{opacity: 1;}50%{opacity: 0;}66.67%{opacity: 1;}83.33%{opacity: 0;}100%{opacity: 1;}}@-webkit-keyframes kf_el_8ZnXfnNlV1Z_an_j1-ie6KJa{0%{opacity: 1;}16.67%{opacity: 0;}33.33%{opacity: 1;}50%{opacity: 0;}66.67%{opacity: 1;}83.33%{opacity: 0;}100%{opacity: 1;}}@keyframes kf_el_8ZnXfnNlV1Z_an_j1-ie6KJa{0%{opacity: 1;}16.67%{opacity: 0;}33.33%{opacity: 1;}50%{opacity: 0;}66.67%{opacity: 1;}83.33%{opacity: 0;}100%{opacity: 1;}}@-webkit-keyframes kf_el_VGClFZK7ieF_an_jC63G6ovO{0%{opacity: 1;}16.67%{opacity: 0;}33.33%{opacity: 1;}50%{opacity: 0;}66.67%{opacity: 1;}83.33%{opacity: 0;}100%{opacity: 1;}}@keyframes kf_el_VGClFZK7ieF_an_jC63G6ovO{0%{opacity: 1;}16.67%{opacity: 0;}33.33%{opacity: 1;}50%{opacity: 0;}66.67%{opacity: 1;}83.33%{opacity: 0;}100%{opacity: 1;}}@-webkit-keyframes kf_el_eHew9qQLxIg_an_KfXm3AgsK{0%{opacity: 0;}16.67%{opacity: 1;}33.33%{opacity: 0;}50%{opacity: 1;}66.67%{opacity: 0;}83.33%{opacity: 1;}100%{opacity: 0;}}@keyframes kf_el_eHew9qQLxIg_an_KfXm3AgsK{0%{opacity: 0;}16.67%{opacity: 1;}33.33%{opacity: 0;}50%{opacity: 1;}66.67%{opacity: 0;}83.33%{opacity: 1;}100%{opacity: 0;}}@-webkit-keyframes kf_el_pXKmnvkfM8N_an_bVO_FuyzJ{0%{opacity: 0;}16.67%{opacity: 1;}33.33%{opacity: 0;}50%{opacity: 1;}66.67%{opacity: 0;}83.33%{opacity: 1;}100%{opacity: 0;}}@keyframes kf_el_pXKmnvkfM8N_an_bVO_FuyzJ{0%{opacity: 0;}16.67%{opacity: 1;}33.33%{opacity: 0;}50%{opacity: 1;}66.67%{opacity: 0;}83.33%{opacity: 1;}100%{opacity: 0;}}@-webkit-keyframes kf_el_7RV1DLifs3V_an_MWT96fgbB{0%{opacity: 0;}16.67%{opacity: 1;}33.33%{opacity: 0;}50%{opacity: 1;}66.67%{opacity: 0;}83.33%{opacity: 1;}100%{opacity: 0;}}@keyframes kf_el_7RV1DLifs3V_an_MWT96fgbB{0%{opacity: 0;}16.67%{opacity: 1;}33.33%{opacity: 0;}50%{opacity: 1;}66.67%{opacity: 0;}83.33%{opacity: 1;}100%{opacity: 0;}}@-webkit-keyframes kf_el_IuRwnxD1dSQ_an_fFpSuspOL{0%{opacity: 0;}16.67%{opacity: 1;}33.33%{opacity: 0;}50%{opacity: 1;}66.67%{opacity: 0;}83.33%{opacity: 1;}100%{opacity: 0;}}@keyframes kf_el_IuRwnxD1dSQ_an_fFpSuspOL{0%{opacity: 0;}16.67%{opacity: 1;}33.33%{opacity: 0;}50%{opacity: 1;}66.67%{opacity: 0;}83.33%{opacity: 1;}100%{opacity: 0;}}@-webkit-keyframes kf_el_h-FHbqrdz8w_an_0ZTQ088H7{0%{opacity: 0;}16.67%{opacity: 1;}33.33%{opacity: 0;}50%{opacity: 1;}66.67%{opacity: 0;}83.33%{opacity: 1;}100%{opacity: 0;}}@keyframes kf_el_h-FHbqrdz8w_an_0ZTQ088H7{0%{opacity: 0;}16.67%{opacity: 1;}33.33%{opacity: 0;}50%{opacity: 1;}66.67%{opacity: 0;}83.33%{opacity: 1;}100%{opacity: 0;}}@-webkit-keyframes kf_el_exuvAUAXW-Z_an_z4RcpZ86c{0%{opacity: 0;}16.67%{opacity: 1;}33.33%{opacity: 0;}50%{opacity: 1;}66.67%{opacity: 0;}83.33%{opacity: 1;}100%{opacity: 0;}}@keyframes kf_el_exuvAUAXW-Z_an_z4RcpZ86c{0%{opacity: 0;}16.67%{opacity: 1;}33.33%{opacity: 0;}50%{opacity: 1;}66.67%{opacity: 0;}83.33%{opacity: 1;}100%{opacity: 0;}}@-webkit-keyframes kf_el_NZL029rtu76_an_Y1V3fSzge{0%{opacity: 1;}16.67%{opacity: 0;}33.33%{opacity: 1;}50%{opacity: 0;}66.67%{opacity: 1;}83.33%{opacity: 0;}100%{opacity: 1;}}@keyframes kf_el_NZL029rtu76_an_Y1V3fSzge{0%{opacity: 1;}16.67%{opacity: 0;}33.33%{opacity: 1;}50%{opacity: 0;}66.67%{opacity: 1;}83.33%{opacity: 0;}100%{opacity: 1;}}#el_oUEA_RQYx *{-webkit-animation-duration: 3s;animation-duration: 3s;-webkit-animation-iteration-count: infinite;animation-iteration-count: infinite;-webkit-animation-timing-function: cubic-bezier(0, 0, 1, 1);animation-timing-function: cubic-bezier(0, 0, 1, 1);}#el_lLlsiPbSXo{opacity: 1;fill: #000000;fill-opacity: 0;}#el_iVFycHsxtN{opacity: 1;fill-opacity: 0;stroke: #000000;stroke-width: 1;stroke-opacity: 0;}#el_nh818X3a-U{opacity: 1;fill: #000000;fill-opacity: 0;}#el_meif05kEp-{opacity: 1;fill-opacity: 0;stroke: #000000;stroke-width: 6;stroke-opacity: 1;}#el_b3L6Uhqap5{opacity: 1;fill: url(#gradienth2Fsrctlbn);}#el_-IPUOKsoek{opacity: 1;fill-opacity: 0;stroke: #000000;stroke-width: 1;stroke-opacity: 0;}#el__35yCYLrLUy{opacity: 1;fill: url(#gradienta4022KRynJ);}#el_uiCmJLmwGNH{opacity: 1;fill-opacity: 0;stroke: #000000;stroke-width: 1;stroke-opacity: 0;}#el_3HNU8hft-nM{opacity: 1;fill: #000000;fill-opacity: 0;}#el_l7Jy7ev5Nza{opacity: 1;fill-opacity: 0;stroke: #000000;stroke-width: 6;stroke-opacity: 1;}#el_ibb7xh-VBMW{opacity: 1;fill: #000000;fill-opacity: 0;}#el_P7fSJE889Vi{opacity: 1;fill-opacity: 0;stroke: #000000;stroke-width: 6;stroke-opacity: 1;}#el_nYqhy1pwNC0{opacity: 1;fill: transparent;fill-opacity: 1;}#el_UYLoq5xcW2b{opacity: 1;fill: transparent;fill-opacity: 1;}#el_AJg72aa3oYP{opacity: 1;fill: url(#gradientbQNm9hSO7);}#el_kY8pUFmLp26{opacity: 1;fill: transparent;fill-opacity: 1;}#el_vnwui-PaYnP{opacity: 1;fill: transparent;fill-opacity: 1;}#el__8XiK1FxkNM{opacity: 1;fill: url(#gradientapoPfVeC4);}#el_aCYFTW0yuFn{opacity: 1;fill: transparent;fill-opacity: 1;}#el_3S869vwfZA_{opacity: 1;fill: transparent;fill-opacity: 1;}#el_8jZsUeU4pVm{opacity: 1;fill: url(#gradientg76llECOZ);}#el_-eMcPSP20jB{opacity: 1;fill: transparent;fill-opacity: 1;}#el_NFldX4J-tYz{opacity: 1;fill: transparent;fill-opacity: 1;}#el_VU4wAZVKr0V{opacity: 1;fill: url(#gradientaUppAzvE5);}#el_b8BQK2sGmcr{opacity: 1;fill: transparent;fill-opacity: 1;}#el_z6CLu6urFcy{opacity: 1;fill: transparent;fill-opacity: 1;}#el_xq27xTRUXeu{opacity: 1;fill: url(#gradienta1XADG0d8h);}#el_4aYzXwTo0v0{opacity: 1;fill: transparent;fill-opacity: 1;}#el_WLCzWWS1iEL{opacity: 1;fill: transparent;fill-opacity: 1;}#el_HnVGoEN0KRV{opacity: 1;fill: url(#gradienth4cDQ8anty);}#el_jGUY72mSqAw{opacity: 1;fill: #ad002a;fill-opacity: 1;}#el_DUPnaV_S_Qm{opacity: 1;fill: #c9a800;fill-opacity: 1;}#el_yEWpNUhtQ98{opacity: 1;fill: #ad0000;fill-opacity: 1;}#el_MkGKrmurLEO{opacity: 1;fill: #b7002d;fill-opacity: 1;}#el_w31wOLjoA0T{opacity: 1;fill: #cbaa00;fill-opacity: 1;}#el_IuRwnxD1dSQ{opacity: 0;fill: url(#gradienta13VXtY7q3);-webkit-animation-fill-mode: backwards;animation-fill-mode: backwards;-webkit-animation-name: kf_el_IuRwnxD1dSQ_an_fFpSuspOL;animation-name: kf_el_IuRwnxD1dSQ_an_fFpSuspOL;-webkit-animation-timing-function: cubic-bezier(0, 0, 1, 1);animation-timing-function: cubic-bezier(0, 0, 1, 1);}#el_8ZnXfnNlV1Z{opacity: 1;fill: url(#gradientb8BATXgw3);-webkit-animation-fill-mode: backwards;animation-fill-mode: backwards;-webkit-animation-name: kf_el_8ZnXfnNlV1Z_an_j1-ie6KJa;animation-name: kf_el_8ZnXfnNlV1Z_an_j1-ie6KJa;-webkit-animation-timing-function: cubic-bezier(0, 0, 1, 1);animation-timing-function: cubic-bezier(0, 0, 1, 1);}#el_vcqvpGaQNm2{opacity: 1;fill: url(#gradientc5Sqxak0E);}#el_3eEC6eweUmK{opacity: 1;fill: url(#gradientc1JriAmYZq);}#el_DiO08vt7wz0{opacity: 1;fill: url(#gradientcX8kTJO7l);}#el_KSyjIsOmAKA{opacity: 1;fill: #cbaa00;fill-opacity: 1;}#el_VGClFZK7ieF{opacity: 1;fill: url(#gradientjBywt2tz5);-webkit-animation-fill-mode: backwards;animation-fill-mode: backwards;-webkit-animation-name: kf_el_VGClFZK7ieF_an_jC63G6ovO;animation-name: kf_el_VGClFZK7ieF_an_jC63G6ovO;-webkit-animation-timing-function: cubic-bezier(0, 0, 1, 1);animation-timing-function: cubic-bezier(0, 0, 1, 1);}#el_Ete5RlK8mjk{opacity: 1;fill: #ad002a;fill-opacity: 1;}#el__qKILyGIva2{opacity: 1;fill: #c9a800;fill-opacity: 1;}#el_qkW4kwzQFPO{opacity: 1;fill: #ad0000;fill-opacity: 1;}#el_Z-FMWeBIBGc{opacity: 1;fill: #b7002d;fill-opacity: 1;}#el_ALTE7Z8hb3Z{opacity: 1;fill: #cbaa00;fill-opacity: 1;}#el_7RV1DLifs3V{opacity: 0;fill: url(#gradienta3n5cDhmd);-webkit-animation-fill-mode: backwards;animation-fill-mode: backwards;-webkit-animation-name: kf_el_7RV1DLifs3V_an_MWT96fgbB;animation-name: kf_el_7RV1DLifs3V_an_MWT96fgbB;-webkit-animation-timing-function: cubic-bezier(0, 0, 1, 1);animation-timing-function: cubic-bezier(0, 0, 1, 1);}#el_WLUk-MTfOgi{opacity: 1;fill: url(#gradienta2PCuFgW04);-webkit-animation-fill-mode: backwards;animation-fill-mode: backwards;-webkit-animation-name: kf_el_WLUk-MTfOgi_an_jS7sYzE_4;animation-name: kf_el_WLUk-MTfOgi_an_jS7sYzE_4;-webkit-animation-timing-function: cubic-bezier(0, 0, 1, 1);animation-timing-function: cubic-bezier(0, 0, 1, 1);}#el_pXKmnvkfM8N{opacity: 0;fill: url(#gradientc3DG2uLeZL);-webkit-animation-fill-mode: backwards;animation-fill-mode: backwards;-webkit-animation-name: kf_el_pXKmnvkfM8N_an_bVO_FuyzJ;animation-name: kf_el_pXKmnvkfM8N_an_bVO_FuyzJ;-webkit-animation-timing-function: cubic-bezier(0, 0, 1, 1);animation-timing-function: cubic-bezier(0, 0, 1, 1);}#el_eHew9qQLxIg{opacity: 0;fill: url(#gradientellpoEJt);-webkit-animation-fill-mode: backwards;animation-fill-mode: backwards;-webkit-animation-name: kf_el_eHew9qQLxIg_an_KfXm3AgsK;animation-name: kf_el_eHew9qQLxIg_an_KfXm3AgsK;-webkit-animation-timing-function: cubic-bezier(0, 0, 1, 1);animation-timing-function: cubic-bezier(0, 0, 1, 1);}#el_7_cicdvYUKX{opacity: 1;fill: url(#gradientb2nfKndKe);-webkit-animation-fill-mode: backwards;animation-fill-mode: backwards;-webkit-animation-name: kf_el_7_cicdvYUKX_an_97_YeMTLH;animation-name: kf_el_7_cicdvYUKX_an_97_YeMTLH;-webkit-animation-timing-function: cubic-bezier(0, 0, 1, 1);animation-timing-function: cubic-bezier(0, 0, 1, 1);}#el_0Db1APz3Rt7{opacity: 1;fill: #cbaa00;fill-opacity: 1;}#el_lP2M2rGd-9Y{opacity: 1;fill: url(#gradienta7M63JD8q);-webkit-animation-fill-mode: backwards;animation-fill-mode: backwards;-webkit-animation-name: kf_el_lP2M2rGd-9Y_an_tkK5GC-RM;animation-name: kf_el_lP2M2rGd-9Y_an_tkK5GC-RM;-webkit-animation-timing-function: cubic-bezier(0, 0, 1, 1);animation-timing-function: cubic-bezier(0, 0, 1, 1);}#el_NZL029rtu76{-webkit-animation-fill-mode: backwards;animation-fill-mode: backwards;opacity: 1;-webkit-animation-name: kf_el_NZL029rtu76_an_Y1V3fSzge;animation-name: kf_el_NZL029rtu76_an_Y1V3fSzge;-webkit-animation-timing-function: cubic-bezier(0, 0, 1, 1);animation-timing-function: cubic-bezier(0, 0, 1, 1);}#el_exuvAUAXW-Z{-webkit-animation-fill-mode: backwards;animation-fill-mode: backwards;opacity: 0;-webkit-animation-name: kf_el_exuvAUAXW-Z_an_z4RcpZ86c;animation-name: kf_el_exuvAUAXW-Z_an_z4RcpZ86c;-webkit-animation-timing-function: cubic-bezier(0, 0, 1, 1);animation-timing-function: cubic-bezier(0, 0, 1, 1);}#el_h-FHbqrdz8w{-webkit-animation-fill-mode: backwards;animation-fill-mode: backwards;opacity: 0;-webkit-animation-name: kf_el_h-FHbqrdz8w_an_0ZTQ088H7;animation-name: kf_el_h-FHbqrdz8w_an_0ZTQ088H7;-webkit-animation-timing-function: cubic-bezier(0, 0, 1, 1);animation-timing-function: cubic-bezier(0, 0, 1, 1);}</style><defs><path d="M1458.41 277.71C1115.99 384.89 785.81 382.09 467.93 269.33" id="a4yKaCL0wM"/><path d="M1458.41 277.71C1115.99 384.89 785.81 382.09 467.93 269.33" id="b2amMvyJAj"/><path d="M1483.39 244.25L1412.51 1100.61L1385.8 1090.58L1456.68 234.19L1483.39 244.25Z" id="cpXzcRkVi"/><linearGradient id="gradienth2Fsrctlbn" gradientUnits="userSpaceOnUse" x1="1470.04" y1="239.21" x2="1399.16" y2="1095.6"><stop style="stop-color: #3b1e1e;stop-opacity: 1" offset="0%"/><stop style="stop-color: #010000;stop-opacity: 1" offset="100%"/></linearGradient><path d="M476.78 234.19L554.72 1071.33L528.76 1080L450.82 242.86L476.78 234.19Z" id="atkol1M6V"/><linearGradient id="gradienta4022KRynJ" gradientUnits="userSpaceOnUse" x1="463.81" y1="238.52" x2="541.75" y2="1075.65"><stop style="stop-color: #3c1e1e;stop-opacity: 1" offset="0%"/><stop style="stop-color: #010000;stop-opacity: 1" offset="100%"/></linearGradient><path d="M2201.81 724.8L1473.28 279.45" id="b1KToPUHZ"/><path d="M-260.6 630.57L467.93 279.08" id="c1QpKkC4r2"/><path d="M1181.11 445.96L1159.97 467.13L1139.78 339.67L1235.37 324.53L1255.56 451.99L1228.91 438.39L1202.26 424.8L1181.11 445.96Z" id="a29oKp9mN5"/><text id="a9OQH9kpg" x="-5.57" y="-11.46" font-size="68" font-family="Ewert" font-weight="normal" font-style="normal" letter-spacing="0" alignment-baseline="before-edge" transform="matrix(0.9876883405951377 -0.1564344650402311 0.1564344650402311 0.9876883405951377 1196.4305499134703 346.4002459867438)" style="line-height:100%" xml:space="preserve" dominant-baseline="text-before-edge"><tspan x="-5.57" dy="0em" alignment-baseline="before-edge" dominant-baseline="text-before-edge" text-anchor="middle">U</tspan></text><path d="M1140.34 343.18L1235.88 328.05L1236.65 332.92L1141.11 348.05L1140.34 343.18Z" id="a4ZSYY2eg"/><linearGradient id="gradientbQNm9hSO7" gradientUnits="userSpaceOnUse" x1="1188.11" y1="335.62" x2="1188.88" y2="340.49"><stop style="stop-color: #e00000;stop-opacity: 1" offset="0%"/><stop style="stop-color: #a80000;stop-opacity: 1" offset="100%"/></linearGradient><path d="M627.01 439.3L607.79 416.38L588.57 393.45L560.84 404.67L533.11 415.89L564.32 290.68L658.23 314.09L627.01 439.3Z" id="cdA1fwYL6"/><text id="akO9rgj1O" x="-5.57" y="-11.46" font-size="68" font-family="Ewert" font-weight="normal" font-style="normal" letter-spacing="0" alignment-baseline="before-edge" transform="matrix(0.9702957262759965 0.24192189559966754 -0.24192189559966754 0.9702957262759965 613.8427051201734 319.0069476846101)" style="line-height:100%" xml:space="preserve" dominant-baseline="text-before-edge"><tspan x="-5.57" dy="0em" alignment-baseline="before-edge" dominant-baseline="text-before-edge" text-anchor="middle">F</tspan></text><path d="M563.46 294.13L657.33 317.53L656.13 322.32L562.27 298.91L563.46 294.13Z" id="a3jH8RE5Vm"/><linearGradient id="gradientapoPfVeC4" gradientUnits="userSpaceOnUse" x1="610.4" y1="305.83" x2="609.2" y2="310.61"><stop style="stop-color: #e00000;stop-opacity: 1" offset="0%"/><stop style="stop-color: #a80000;stop-opacity: 1" offset="100%"/></linearGradient><path d="M784.61 465.1L784.61 465.1L763.1 444.3L741.59 423.51L715.18 437.57L688.77 451.63L706.73 323.84L802.57 337.31L784.61 465.1Z" id="c3hLRS9Cx2"/><text id="btd5YgB4g" x="-5.57" y="-11.46" font-size="68" font-family="Ewert" font-weight="normal" font-style="normal" letter-spacing="0" alignment-baseline="before-edge" transform="matrix(0.9902680687415716 0.1391731009600573 -0.1391731009600573 0.9902680687415716 758.9366014065089 346.83531725351787)" style="line-height:100%" xml:space="preserve" dominant-baseline="text-before-edge"><tspan x="-5.57" dy="0em" alignment-baseline="before-edge" dominant-baseline="text-before-edge" text-anchor="middle">L</tspan></text><path d="M706.23 327.36L802.03 340.82L801.34 345.7L705.55 332.24L706.23 327.36Z" id="a3vRI0spbi"/><linearGradient id="gradientg76llECOZ" gradientUnits="userSpaceOnUse" x1="754.13" y1="334.09" x2="753.44" y2="338.97"><stop style="stop-color: #e00000;stop-opacity: 1" offset="0%"/><stop style="stop-color: #a80000;stop-opacity: 1" offset="100%"/></linearGradient><path d="M945.78 476.78L922.21 458.35L898.65 439.92L873.85 456.66L849.06 473.4L853.56 344.43L950.28 347.81L945.78 476.78Z" id="a1i2HN44Ov"/><text id="aASvbhrPY" x="-5.57" y="-11.46" font-size="68" font-family="Ewert" font-weight="normal" font-style="normal" letter-spacing="0" alignment-baseline="before-edge" transform="matrix(0.9993908270190958 0.03489949670250073 -0.03489949670250073 0.9993908270190958 907.8850396197489 361.84681580023243)" style="line-height:100%" xml:space="preserve" dominant-baseline="text-before-edge"><tspan x="-5.57" dy="0em" alignment-baseline="before-edge" dominant-baseline="text-before-edge" text-anchor="middle">U</tspan></text><path d="M853.44 347.99L950.11 351.36L949.94 356.29L853.26 352.91L853.44 347.99Z" id="b3SVLzYfL9"/><linearGradient id="gradientaUppAzvE5" gradientUnits="userSpaceOnUse" x1="901.77" y1="349.67" x2="901.6" y2="354.6"><stop style="stop-color: #e00000;stop-opacity: 1" offset="0%"/><stop style="stop-color: #a80000;stop-opacity: 1" offset="100%"/></linearGradient><path d="M1005.05 477.57L1005.06 477.57L1101.71 472.51L1076.62 456.2L1051.54 439.89L1028.29 458.73L1005.06 477.57L998.3 348.7L1094.95 343.64L1101.71 472.51L1005.05 477.57Z" id="b1nB9lEOb"/><text id="biXMZdHaA" x="-5.57" y="-11.46" font-size="68" font-family="Ewert" font-weight="normal" font-style="normal" letter-spacing="0" alignment-baseline="before-edge" transform="matrix(1 -5.841085237373974e-15 5.841085237373974e-15 1 1055.3817702054355 361.5613705154182)" style="line-height:100%" xml:space="preserve" dominant-baseline="text-before-edge"><tspan x="-5.57" dy="0em" alignment-baseline="before-edge" dominant-baseline="text-before-edge" text-anchor="middle">X</tspan></text><path d="M998.15 352.25L1094.76 347.19L1095.02 352.12L998.41 357.18L998.15 352.25Z" id="b7QccuZp62"/><linearGradient id="gradienta1XADG0d8h" gradientUnits="userSpaceOnUse" x1="1046.46" y1="349.72" x2="1046.71" y2="354.65"><stop style="stop-color: #e00000;stop-opacity: 1" offset="0%"/><stop style="stop-color: #a80000;stop-opacity: 1" offset="100%"/></linearGradient><path d="M1383.5 407.23L1355.76 396.01L1336.54 418.94L1317.33 441.86L1317.32 441.86L1286.11 316.65L1380.01 293.24L1411.23 418.45L1383.5 407.23Z" id="f1yJhU0Or4"/><text id="b2LIElL34V" x="-5.57" y="-11.46" font-size="68" font-family="Ewert" font-weight="normal" font-style="normal" letter-spacing="0" alignment-baseline="before-edge" transform="matrix(0.9702957262759948 -0.24192189559967422 0.24192189559967422 0.9702957262759948 1343.1271916678975 318.41603880069187)" style="line-height:100%" xml:space="preserve" dominant-baseline="text-before-edge"><tspan x="-5.57" dy="0em" alignment-baseline="before-edge" dominant-baseline="text-before-edge" text-anchor="middle">S</tspan></text><path d="M1286.97 320.1L1380.83 296.7L1382.02 301.48L1288.16 324.89L1286.97 320.1Z" id="a1yaG4aNn"/><linearGradient id="gradienth4cDQ8anty" gradientUnits="userSpaceOnUse" x1="1333.9" y1="308.4" x2="1335.09" y2="313.18"><stop style="stop-color: #e00000;stop-opacity: 1" offset="0%"/><stop style="stop-color: #a80000;stop-opacity: 1" offset="100%"/></linearGradient><path d="M394.56 327.64L397.55 327.02L398.39 330.86L398.62 330.87L399.21 330.92L399.81 330.99L400.4 331.09L400.98 331.21L401.57 331.35L402.15 331.52L402.72 331.71L403.29 331.92L403.85 332.15L404.41 332.41L404.96 332.69L405.49 333L406.02 333.32L406.54 333.67L407.05 334.05L407.55 334.44L408.04 334.86L408.51 335.3L408.95 335.76L409.38 336.22L409.78 336.7L410.16 337.2L410.52 337.7L410.85 338.21L411.17 338.74L411.46 339.27L411.73 339.82L411.98 340.37L412.2 340.93L412.41 341.49L412.59 342.07L412.75 342.64L412.88 343.23L413 343.81L413.09 344.4L413.15 344.99L413.2 345.58L413.22 346.18L413.22 346.77L413.2 347.37L413.16 347.96L413.09 348.55L413 349.14L412.88 349.73L412.75 350.31L412.59 350.88L412.4 351.46L412.2 352.02L411.97 352.58L411.72 353.13L411.44 353.68L411.14 354.21L410.82 354.74L410.48 355.25L410.11 355.76L409.72 356.25L409.3 356.73L408.87 357.19L408.42 357.64L407.95 358.05L407.48 358.45L406.99 358.83L406.49 359.18L405.98 359.51L405.45 359.82L404.92 360.1L404.38 360.37L403.83 360.61L403.27 360.83L402.71 361.03L402.14 361.2L401.56 361.35L400.98 361.48L400.4 361.59L399.81 361.67L399.22 361.74L398.62 361.77L398.03 361.79L397.43 361.78L396.84 361.76L396.24 361.7L395.65 361.63L395.06 361.53L394.47 361.41L393.89 361.27L393.31 361.1L392.73 360.92L392.17 360.7L391.6 360.47L391.05 360.21L390.5 359.93L389.96 359.63L389.43 359.3L388.91 358.95L388.4 358.58L387.91 358.18L387.42 357.76L386.95 357.32L386.51 356.87L386.08 356.4L385.68 355.92L385.3 355.43L384.94 354.92L384.6 354.41L384.29 353.88L384 353.35L383.73 352.8L383.48 352.25L383.25 351.69L383.05 351.13L382.87 350.56L382.71 349.98L382.57 349.4L382.46 348.81L382.37 348.22L382.3 347.63L382.26 347.04L382.23 346.44L382.23 345.85L382.26 345.26L382.3 344.66L382.37 344.07L382.46 343.48L382.57 342.9L382.71 342.32L382.87 341.74L383.05 341.17L383.26 340.6L383.49 340.04L383.74 339.49L384.02 338.95L384.31 338.41L384.64 337.88L384.98 337.37L385.35 336.86L385.74 336.37L386.16 335.89L386.59 335.43L387.04 334.99L387.5 334.57L387.98 334.17L388.47 333.8L388.97 333.44L389.48 333.11L390 332.8L390.26 332.66L389.4 328.71L393.51 327.86L392.33 322.69L393.37 322.46L394.56 327.64ZM384.06 345.35L384 345.44L383.94 345.55L383.89 345.65L383.84 345.77L383.79 345.89L383.75 346.01L383.71 346.15L383.68 346.28L383.65 346.43L383.63 346.58L383.61 346.73L383.59 346.89L383.58 347.05L383.57 347.22L383.56 347.39L383.56 347.56L383.57 347.74L383.57 347.93L383.59 348.11L383.6 348.3L383.62 348.5L383.65 348.69L383.68 348.89L383.71 349.09L383.75 349.3L383.79 349.5L383.84 349.71L383.89 349.92L383.95 350.13L384.01 350.34L384.07 350.56L384.14 350.77L384.21 350.98L384.29 351.19L384.37 351.4L384.45 351.6L384.53 351.8L384.62 352L384.71 352.19L384.8 352.38L384.89 352.56L384.98 352.74L385.08 352.91L385.18 353.08L385.28 353.24L385.38 353.4L385.48 353.55L385.59 353.7L385.69 353.84L385.8 353.98L385.9 354.11L386.01 354.23L386.12 354.35L386.23 354.46L386.34 354.57L386.45 354.67L386.56 354.76L386.66 354.84L386.77 354.92L386.88 354.99L386.99 355.06L387.1 355.11L387.2 355.16L387.31 355.21L387.41 355.24L387.52 355.26L387.62 355.28L387.72 355.29L387.82 355.29L387.92 355.28L388.02 355.27L388.11 355.24L388.2 355.21L388.29 355.17L388.37 355.11L388.45 355.06L388.53 354.99L388.6 354.92L388.67 354.84L388.74 354.75L388.8 354.65L388.85 354.55L388.91 354.44L388.96 354.33L389 354.21L389.04 354.08L389.08 353.95L389.11 353.81L389.14 353.67L389.17 353.52L389.19 353.37L389.2 353.21L389.22 353.05L389.23 352.88L389.23 352.71L389.23 352.53L389.23 352.35L389.22 352.17L389.21 351.98L389.19 351.79L389.17 351.6L389.14 351.41L389.11 351.21L389.08 351.01L389.04 350.8L389 350.6L388.95 350.39L388.9 350.18L388.85 349.97L388.79 349.76L388.72 349.54L388.65 349.33L388.58 349.11L388.51 348.9L388.43 348.7L388.35 348.49L388.26 348.3L388.18 348.1L388.09 347.91L388 347.72L387.9 347.54L387.81 347.36L387.71 347.19L387.61 347.02L387.51 346.86L387.41 346.7L387.31 346.55L387.21 346.4L387.1 346.26L386.99 346.12L386.89 345.99L386.78 345.87L386.67 345.75L386.56 345.64L386.46 345.53L386.35 345.43L386.24 345.34L386.13 345.25L386.02 345.18L385.91 345.1L385.8 345.04L385.7 344.98L385.59 344.93L385.48 344.89L385.38 344.86L385.27 344.83L385.17 344.82L385.07 344.81L384.97 344.81L384.87 344.81L384.78 344.83L384.68 344.86L384.59 344.89L384.5 344.93L384.42 344.98L384.34 345.04L384.26 345.11L384.19 345.18L384.12 345.26L384.06 345.35ZM393.57 312.41L393.78 315.43L396.39 317.12L393.58 318.07L392.92 320.98L390.97 318.55L387.94 318.66L389.55 316.2L388.34 313.36L391.29 314.27L393.57 312.41Z" id="b32Nin66xn"/><path d="M323.56 363.51L326.55 362.89L327.39 366.73L327.62 366.74L328.21 366.79L328.81 366.87L329.4 366.96L329.98 367.08L330.57 367.23L331.15 367.39L331.72 367.58L332.29 367.79L332.85 368.03L333.41 368.29L333.96 368.57L334.49 368.87L335.02 369.2L335.54 369.55L336.05 369.92L336.55 370.32L337.04 370.74L337.51 371.18L337.95 371.63L338.38 372.1L338.78 372.58L339.16 373.07L339.52 373.57L339.85 374.09L340.17 374.61L340.46 375.15L340.73 375.69L340.98 376.25L341.2 376.8L341.41 377.37L341.59 377.94L341.75 378.52L341.88 379.1L342 379.69L342.09 380.27L342.15 380.87L342.2 381.46L342.22 382.05L342.22 382.65L342.2 383.24L342.16 383.83L342.09 384.43L342 385.01L341.88 385.6L341.75 386.18L341.59 386.76L341.4 387.33L341.2 387.9L340.97 388.46L340.72 389.01L340.44 389.55L340.14 390.09L339.82 390.61L339.48 391.13L339.11 391.63L338.72 392.13L338.3 392.61L337.87 393.07L337.42 393.51L336.95 393.93L336.48 394.33L335.99 394.7L335.49 395.05L334.98 395.39L334.45 395.69L333.92 395.98L333.38 396.24L332.83 396.49L332.27 396.7L331.71 396.9L331.14 397.08L330.56 397.23L329.98 397.36L329.4 397.46L328.81 397.55L328.22 397.61L327.62 397.65L327.03 397.67L326.43 397.66L325.84 397.63L325.24 397.58L324.65 397.51L324.06 397.41L323.47 397.29L322.89 397.15L322.31 396.98L321.73 396.79L321.17 396.58L320.6 396.34L320.05 396.09L319.5 395.81L318.96 395.5L318.43 395.17L317.91 394.82L317.4 394.45L316.91 394.05L316.42 393.63L315.95 393.2L315.51 392.74L315.08 392.27L314.68 391.79L314.3 391.3L313.94 390.8L313.6 390.28L313.29 389.76L313 389.22L312.73 388.68L312.48 388.13L312.25 387.57L312.05 387L311.87 386.43L311.71 385.85L311.57 385.27L311.46 384.69L311.37 384.1L311.3 383.51L311.26 382.91L311.23 382.32L311.23 381.72L311.26 381.13L311.3 380.54L311.37 379.95L311.46 379.36L311.57 378.77L311.71 378.19L311.87 377.61L312.05 377.04L312.26 376.48L312.49 375.92L312.74 375.36L313.02 374.82L313.31 374.29L313.64 373.76L313.98 373.24L314.35 372.74L314.74 372.25L315.16 371.77L315.59 371.3L316.04 370.86L316.5 370.44L316.98 370.05L317.47 369.67L317.97 369.32L318.48 368.99L319 368.68L319.26 368.54L318.4 364.58L322.51 363.73L321.33 358.56L322.37 358.33L323.56 363.51ZM313.06 381.22L313 381.32L312.94 381.42L312.89 381.53L312.84 381.64L312.79 381.76L312.75 381.89L312.71 382.02L312.68 382.16L312.65 382.3L312.63 382.45L312.61 382.6L312.59 382.76L312.58 382.93L312.57 383.09L312.56 383.26L312.56 383.44L312.57 383.62L312.57 383.8L312.59 383.99L312.6 384.18L312.62 384.37L312.65 384.57L312.68 384.77L312.71 384.97L312.75 385.17L312.79 385.38L312.84 385.58L312.89 385.79L312.95 386.01L313.01 386.22L313.07 386.43L313.14 386.65L313.21 386.86L313.29 387.07L313.37 387.28L313.45 387.48L313.53 387.68L313.62 387.87L313.71 388.06L313.8 388.25L313.89 388.43L313.98 388.61L314.08 388.78L314.18 388.95L314.28 389.11L314.38 389.27L314.48 389.43L314.59 389.57L314.69 389.72L314.8 389.85L314.9 389.98L315.01 390.11L315.12 390.22L315.23 390.34L315.34 390.44L315.45 390.54L315.56 390.63L315.66 390.72L315.77 390.8L315.88 390.87L315.99 390.93L316.1 390.99L316.2 391.04L316.31 391.08L316.41 391.11L316.52 391.14L316.62 391.16L316.72 391.17L316.82 391.17L316.92 391.16L317.02 391.14L317.11 391.12L317.2 391.08L317.29 391.04L317.37 390.99L317.45 390.93L317.53 390.87L317.6 390.79L317.67 390.71L317.74 390.62L317.8 390.53L317.85 390.43L317.91 390.32L317.96 390.21L318 390.08L318.04 389.96L318.08 389.83L318.11 389.69L318.14 389.55L318.17 389.4L318.19 389.24L318.2 389.09L318.22 388.92L318.23 388.76L318.23 388.58L318.23 388.41L318.23 388.23L318.22 388.05L318.21 387.86L318.19 387.67L318.17 387.48L318.14 387.28L318.11 387.08L318.08 386.88L318.04 386.68L318 386.47L317.95 386.26L317.9 386.05L317.85 385.84L317.79 385.63L317.72 385.42L317.65 385.2L317.58 384.99L317.51 384.78L317.43 384.57L317.35 384.37L317.26 384.17L317.18 383.98L317.09 383.78L317 383.6L316.9 383.42L316.81 383.24L316.71 383.06L316.61 382.9L316.51 382.73L316.41 382.58L316.31 382.42L316.21 382.27L316.1 382.13L315.99 382L315.89 381.87L315.78 381.74L315.67 381.62L315.56 381.51L315.46 381.41L315.35 381.31L315.24 381.21L315.13 381.13L315.02 381.05L314.91 380.98L314.8 380.92L314.7 380.86L314.59 380.81L314.48 380.77L314.38 380.73L314.27 380.71L314.17 380.69L314.07 380.68L313.97 380.68L313.87 380.69L313.78 380.71L313.68 380.73L313.59 380.77L313.5 380.81L313.42 380.86L313.34 380.92L313.26 380.98L313.19 381.06L313.12 381.14L313.06 381.22ZM322.57 348.29L322.78 351.3L325.39 352.99L322.58 353.95L321.92 356.85L319.97 354.43L316.94 354.53L318.55 352.07L317.34 349.24L320.29 350.14L322.57 348.29Z" id="a19spYhkog"/><path d="M253.61 398.51L256.61 397.89L257.45 401.73L257.67 401.74L258.27 401.79L258.86 401.87L259.45 401.96L260.04 402.08L260.62 402.23L261.2 402.39L261.78 402.58L262.35 402.79L262.91 403.03L263.46 403.29L264.01 403.57L264.55 403.87L265.08 404.2L265.6 404.55L266.11 404.92L266.61 405.32L267.09 405.74L267.56 406.18L268.01 406.63L268.43 407.1L268.83 407.58L269.21 408.07L269.57 408.57L269.91 409.09L270.22 409.61L270.52 410.15L270.79 410.69L271.03 411.25L271.26 411.8L271.46 412.37L271.64 412.94L271.8 413.52L271.94 414.1L272.05 414.69L272.14 415.27L272.21 415.87L272.26 416.46L272.28 417.05L272.28 417.65L272.26 418.24L272.21 418.83L272.14 419.43L272.05 420.01L271.94 420.6L271.8 421.18L271.64 421.76L271.46 422.33L271.25 422.9L271.02 423.46L270.77 424.01L270.5 424.55L270.2 425.09L269.88 425.61L269.53 426.13L269.16 426.63L268.77 427.13L268.36 427.61L267.92 428.07L267.47 428.51L267.01 428.93L266.53 429.33L266.04 429.7L265.54 430.05L265.03 430.39L264.51 430.69L263.98 430.98L263.43 431.24L262.88 431.49L262.33 431.7L261.76 431.9L261.19 432.08L260.62 432.23L260.04 432.36L259.45 432.46L258.86 432.55L258.27 432.61L257.68 432.65L257.08 432.67L256.49 432.66L255.89 432.63L255.3 432.58L254.71 432.51L254.12 432.41L253.53 432.29L252.94 432.15L252.36 431.98L251.79 431.79L251.22 431.58L250.66 431.34L250.1 431.09L249.56 430.81L249.02 430.5L248.49 430.17L247.97 429.82L247.46 429.45L246.96 429.05L246.48 428.63L246.01 428.2L245.56 427.74L245.14 427.27L244.73 426.79L244.35 426.3L243.99 425.8L243.66 425.28L243.34 424.76L243.05 424.22L242.78 423.68L242.53 423.13L242.31 422.57L242.1 422L241.92 421.43L241.77 420.85L241.63 420.27L241.52 419.69L241.43 419.1L241.36 418.51L241.31 417.91L241.29 417.32L241.29 416.72L241.31 416.13L241.36 415.54L241.42 414.95L241.52 414.36L241.63 413.77L241.77 413.19L241.93 412.61L242.11 412.04L242.31 411.48L242.54 410.92L242.8 410.36L243.07 409.82L243.37 409.29L243.69 408.76L244.04 408.24L244.4 407.74L244.8 407.25L245.21 406.77L245.65 406.3L246.1 405.86L246.56 405.44L247.03 405.05L247.52 404.67L248.02 404.32L248.54 403.99L249.06 403.68L249.32 403.54L248.46 399.58L252.57 398.73L251.38 393.56L252.42 393.33L253.61 398.51ZM243.11 416.22L243.05 416.32L242.99 416.42L242.94 416.53L242.89 416.64L242.85 416.76L242.81 416.89L242.77 417.02L242.74 417.16L242.71 417.3L242.68 417.45L242.66 417.6L242.64 417.76L242.63 417.93L242.62 418.09L242.62 418.26L242.62 418.44L242.62 418.62L242.63 418.8L242.64 418.99L242.66 419.18L242.68 419.37L242.7 419.57L242.73 419.77L242.77 419.97L242.81 420.17L242.85 420.38L242.9 420.58L242.95 420.79L243 421.01L243.06 421.22L243.13 421.43L243.19 421.65L243.27 421.86L243.34 422.07L243.42 422.28L243.5 422.48L243.59 422.68L243.67 422.87L243.76 423.06L243.85 423.25L243.94 423.43L244.04 423.61L244.14 423.78L244.23 423.95L244.33 424.11L244.44 424.27L244.54 424.43L244.64 424.57L244.75 424.72L244.85 424.85L244.96 424.98L245.07 425.11L245.18 425.22L245.28 425.34L245.39 425.44L245.5 425.54L245.61 425.63L245.72 425.72L245.83 425.8L245.94 425.87L246.05 425.93L246.15 425.99L246.26 426.04L246.36 426.08L246.47 426.11L246.57 426.14L246.68 426.16L246.78 426.17L246.88 426.17L246.97 426.16L247.07 426.14L247.17 426.12L247.26 426.08L247.35 426.04L247.43 425.99L247.51 425.93L247.59 425.87L247.66 425.79L247.73 425.71L247.79 425.62L247.85 425.53L247.91 425.43L247.96 425.32L248.01 425.21L248.06 425.08L248.1 424.96L248.13 424.83L248.17 424.69L248.2 424.55L248.22 424.4L248.24 424.24L248.26 424.09L248.27 423.92L248.28 423.76L248.29 423.58L248.29 423.41L248.28 423.23L248.27 423.05L248.26 422.86L248.24 422.67L248.22 422.48L248.2 422.28L248.17 422.08L248.14 421.88L248.1 421.68L248.06 421.47L248.01 421.26L247.96 421.05L247.9 420.84L247.84 420.63L247.78 420.42L247.71 420.2L247.64 419.99L247.56 419.78L247.48 419.57L247.4 419.37L247.32 419.17L247.23 418.98L247.14 418.78L247.05 418.6L246.96 418.42L246.86 418.24L246.77 418.06L246.67 417.9L246.57 417.73L246.47 417.58L246.36 417.42L246.26 417.27L246.16 417.13L246.05 417L245.94 416.87L245.84 416.74L245.73 416.62L245.62 416.51L245.51 416.41L245.4 416.31L245.29 416.21L245.18 416.13L245.07 416.05L244.97 415.98L244.86 415.92L244.75 415.86L244.64 415.81L244.54 415.77L244.43 415.73L244.33 415.71L244.23 415.69L244.13 415.68L244.03 415.68L243.93 415.69L243.83 415.71L243.74 415.73L243.65 415.77L243.56 415.81L243.47 415.86L243.39 415.92L243.32 415.98L243.25 416.06L243.18 416.14L243.11 416.22ZM252.62 383.29L252.83 386.3L255.45 387.99L252.63 388.95L251.97 391.85L250.02 389.43L247 389.53L248.61 387.07L247.4 384.24L250.35 385.14L252.62 383.29Z" id="c6wssD2IVm"/><path d="M105.56 469.97L108.55 469.35L109.39 473.19L109.62 473.2L110.21 473.25L110.81 473.33L111.4 473.42L111.98 473.54L112.57 473.69L113.15 473.85L113.72 474.04L114.29 474.25L114.85 474.49L115.41 474.74L115.96 475.03L116.49 475.33L117.02 475.66L117.54 476.01L118.05 476.38L118.55 476.78L119.04 477.2L119.51 477.64L119.95 478.09L120.38 478.56L120.78 479.04L121.16 479.53L121.52 480.03L121.85 480.55L122.17 481.07L122.46 481.61L122.73 482.15L122.98 482.7L123.2 483.26L123.41 483.83L123.59 484.4L123.75 484.98L123.88 485.56L124 486.15L124.09 486.73L124.15 487.32L124.2 487.92L124.22 488.51L124.22 489.11L124.2 489.7L124.16 490.29L124.09 490.88L124 491.47L123.88 492.06L123.75 492.64L123.59 493.22L123.4 493.79L123.2 494.36L122.97 494.92L122.72 495.47L122.44 496.01L122.14 496.55L121.82 497.07L121.48 497.59L121.11 498.09L120.72 498.58L120.3 499.07L119.87 499.53L119.42 499.97L118.95 500.39L118.48 500.79L117.99 501.16L117.49 501.51L116.98 501.84L116.45 502.15L115.92 502.44L115.38 502.7L114.83 502.94L114.27 503.16L113.71 503.36L113.14 503.53L112.56 503.69L111.98 503.82L111.4 503.92L110.81 504.01L110.22 504.07L109.62 504.11L109.03 504.13L108.43 504.12L107.84 504.09L107.24 504.04L106.65 503.96L106.06 503.87L105.47 503.75L104.89 503.6L104.31 503.44L103.73 503.25L103.17 503.04L102.6 502.8L102.05 502.55L101.5 502.26L100.96 501.96L100.43 501.63L99.91 501.28L99.4 500.91L98.91 500.51L98.42 500.09L97.95 499.65L97.51 499.2L97.08 498.73L96.68 498.25L96.3 497.76L95.94 497.26L95.6 496.74L95.29 496.22L95 495.68L94.73 495.14L94.48 494.59L94.25 494.03L94.05 493.46L93.87 492.89L93.71 492.31L93.57 491.73L93.46 491.15L93.37 490.56L93.3 489.97L93.26 489.37L93.23 488.78L93.23 488.18L93.26 487.59L93.3 487L93.37 486.41L93.46 485.82L93.57 485.23L93.71 484.65L93.87 484.07L94.05 483.5L94.26 482.93L94.49 482.37L94.74 481.82L95.02 481.28L95.31 480.74L95.64 480.22L95.98 479.7L96.35 479.2L96.74 478.71L97.16 478.23L97.59 477.76L98.04 477.32L98.5 476.9L98.98 476.5L99.47 476.13L99.97 475.78L100.48 475.45L101 475.14L101.26 475L100.4 471.04L104.51 470.19L103.33 465.02L104.37 464.79L105.56 469.97ZM95.06 487.68L95 487.78L94.94 487.88L94.89 487.99L94.84 488.1L94.79 488.22L94.75 488.35L94.71 488.48L94.68 488.62L94.65 488.76L94.63 488.91L94.61 489.06L94.59 489.22L94.58 489.38L94.57 489.55L94.56 489.72L94.56 489.9L94.57 490.08L94.57 490.26L94.59 490.45L94.6 490.64L94.62 490.83L94.65 491.03L94.68 491.23L94.71 491.43L94.75 491.63L94.79 491.84L94.84 492.04L94.89 492.25L94.95 492.46L95.01 492.68L95.07 492.89L95.14 493.1L95.21 493.32L95.29 493.53L95.37 493.73L95.45 493.94L95.53 494.14L95.62 494.33L95.71 494.52L95.8 494.71L95.89 494.89L95.98 495.07L96.08 495.24L96.18 495.41L96.28 495.57L96.38 495.73L96.48 495.88L96.59 496.03L96.69 496.17L96.8 496.31L96.9 496.44L97.01 496.57L97.12 496.68L97.23 496.8L97.34 496.9L97.45 497L97.56 497.09L97.66 497.18L97.77 497.26L97.88 497.33L97.99 497.39L98.1 497.45L98.2 497.5L98.31 497.54L98.41 497.57L98.52 497.6L98.62 497.62L98.72 497.62L98.82 497.63L98.92 497.62L99.02 497.6L99.11 497.58L99.2 497.54L99.29 497.5L99.37 497.45L99.45 497.39L99.53 497.32L99.6 497.25L99.67 497.17L99.74 497.08L99.8 496.99L99.85 496.89L99.91 496.78L99.96 496.66L100 496.54L100.04 496.42L100.08 496.29L100.11 496.15L100.14 496L100.17 495.86L100.19 495.7L100.2 495.54L100.22 495.38L100.23 495.21L100.23 495.04L100.23 494.87L100.23 494.69L100.22 494.5L100.21 494.32L100.19 494.13L100.17 493.94L100.14 493.74L100.11 493.54L100.08 493.34L100.04 493.14L100 492.93L99.95 492.72L99.9 492.51L99.85 492.3L99.79 492.09L99.72 491.88L99.65 491.66L99.58 491.45L99.51 491.24L99.43 491.03L99.35 490.83L99.26 490.63L99.18 490.43L99.09 490.24L99 490.06L98.9 489.87L98.81 489.7L98.71 489.52L98.61 489.36L98.51 489.19L98.41 489.03L98.31 488.88L98.21 488.73L98.1 488.59L97.99 488.46L97.89 488.33L97.78 488.2L97.67 488.08L97.56 487.97L97.46 487.87L97.35 487.77L97.24 487.67L97.13 487.59L97.02 487.51L96.91 487.44L96.8 487.37L96.7 487.32L96.59 487.27L96.48 487.23L96.38 487.19L96.27 487.17L96.17 487.15L96.07 487.14L95.97 487.14L95.87 487.15L95.78 487.17L95.68 487.19L95.59 487.22L95.5 487.27L95.42 487.32L95.34 487.38L95.26 487.44L95.19 487.51L95.12 487.6L95.06 487.68ZM104.57 454.74L104.78 457.76L107.39 459.45L104.58 460.41L103.92 463.31L101.97 460.88L98.94 460.99L100.55 458.53L99.34 455.7L102.29 456.6L104.57 454.74Z" id="eIuxm343y"/><path d="M34.56 505.85L37.55 505.23L38.39 509.06L38.62 509.08L39.21 509.13L39.81 509.2L40.4 509.3L40.98 509.42L41.57 509.56L42.15 509.73L42.72 509.92L43.29 510.13L43.85 510.36L44.41 510.62L44.96 510.9L45.49 511.2L46.02 511.53L46.54 511.88L47.05 512.26L47.55 512.65L48.04 513.07L48.51 513.51L48.95 513.96L49.38 514.43L49.78 514.91L50.16 515.4L50.52 515.91L50.85 516.42L51.17 516.95L51.46 517.48L51.73 518.03L51.98 518.58L52.2 519.14L52.41 519.7L52.59 520.28L52.75 520.85L52.88 521.43L53 522.02L53.09 522.61L53.15 523.2L53.2 523.79L53.22 524.39L53.22 524.98L53.2 525.58L53.16 526.17L53.09 526.76L53 527.35L52.88 527.93L52.75 528.52L52.59 529.09L52.4 529.67L52.2 530.23L51.97 530.79L51.72 531.34L51.44 531.89L51.14 532.42L50.82 532.95L50.48 533.46L50.11 533.97L49.72 534.46L49.3 534.94L48.87 535.4L48.42 535.84L47.95 536.26L47.48 536.66L46.99 537.04L46.49 537.39L45.98 537.72L45.45 538.03L44.92 538.31L44.38 538.58L43.83 538.82L43.27 539.04L42.71 539.24L42.14 539.41L41.56 539.56L40.98 539.69L40.4 539.8L39.81 539.88L39.22 539.94L38.62 539.98L38.03 540L37.43 539.99L36.84 539.97L36.24 539.91L35.65 539.84L35.06 539.74L34.47 539.62L33.89 539.48L33.31 539.31L32.73 539.12L32.17 538.91L31.6 538.68L31.05 538.42L30.5 538.14L29.96 537.84L29.43 537.51L28.91 537.16L28.4 536.79L27.91 536.39L27.42 535.97L26.95 535.53L26.51 535.08L26.08 534.61L25.68 534.13L25.3 533.64L24.94 533.13L24.6 532.62L24.29 532.09L24 531.56L23.73 531.01L23.48 530.46L23.25 529.9L23.05 529.34L22.87 528.76L22.71 528.19L22.57 527.61L22.46 527.02L22.37 526.43L22.3 525.84L22.26 525.25L22.23 524.65L22.23 524.06L22.26 523.46L22.3 522.87L22.37 522.28L22.46 521.69L22.57 521.11L22.71 520.52L22.87 519.95L23.05 519.38L23.26 518.81L23.49 518.25L23.74 517.7L24.02 517.15L24.31 516.62L24.64 516.09L24.98 515.58L25.35 515.07L25.74 514.58L26.16 514.1L26.59 513.64L27.04 513.2L27.5 512.78L27.98 512.38L28.47 512L28.97 511.65L29.48 511.32L30 511.01L30.26 510.87L29.4 506.92L33.51 506.06L32.33 500.9L33.37 500.67L34.56 505.85ZM24.06 523.56L24 523.65L23.94 523.75L23.89 523.86L23.84 523.98L23.79 524.1L23.75 524.22L23.71 524.36L23.68 524.49L23.65 524.64L23.63 524.79L23.61 524.94L23.59 525.1L23.58 525.26L23.57 525.43L23.56 525.6L23.56 525.77L23.57 525.95L23.57 526.14L23.59 526.32L23.6 526.51L23.62 526.71L23.65 526.9L23.68 527.1L23.71 527.3L23.75 527.51L23.79 527.71L23.84 527.92L23.89 528.13L23.95 528.34L24.01 528.55L24.07 528.77L24.14 528.98L24.21 529.19L24.29 529.4L24.37 529.61L24.45 529.81L24.53 530.01L24.62 530.21L24.71 530.4L24.8 530.58L24.89 530.77L24.98 530.94L25.08 531.12L25.18 531.29L25.28 531.45L25.38 531.61L25.48 531.76L25.59 531.91L25.69 532.05L25.8 532.19L25.9 532.32L26.01 532.44L26.12 532.56L26.23 532.67L26.34 532.78L26.45 532.88L26.56 532.97L26.66 533.05L26.77 533.13L26.88 533.2L26.99 533.27L27.1 533.32L27.2 533.37L27.31 533.41L27.41 533.45L27.52 533.47L27.62 533.49L27.72 533.5L27.82 533.5L27.92 533.49L28.02 533.48L28.11 533.45L28.2 533.42L28.29 533.37L28.37 533.32L28.45 533.27L28.53 533.2L28.6 533.13L28.67 533.05L28.74 532.96L28.8 532.86L28.85 532.76L28.91 532.65L28.96 532.54L29 532.42L29.04 532.29L29.08 532.16L29.11 532.02L29.14 531.88L29.17 531.73L29.19 531.58L29.2 531.42L29.22 531.26L29.23 531.09L29.23 530.92L29.23 530.74L29.23 530.56L29.22 530.38L29.21 530.19L29.19 530L29.17 529.81L29.14 529.61L29.11 529.42L29.08 529.21L29.04 529.01L29 528.81L28.95 528.6L28.9 528.39L28.85 528.18L28.79 527.96L28.72 527.75L28.65 527.54L28.58 527.32L28.51 527.11L28.43 526.91L28.35 526.7L28.26 526.5L28.18 526.31L28.09 526.12L28 525.93L27.9 525.75L27.81 525.57L27.71 525.4L27.61 525.23L27.51 525.07L27.41 524.91L27.31 524.76L27.21 524.61L27.1 524.47L26.99 524.33L26.89 524.2L26.78 524.08L26.67 523.96L26.56 523.85L26.46 523.74L26.35 523.64L26.24 523.55L26.13 523.46L26.02 523.38L25.91 523.31L25.8 523.25L25.7 523.19L25.59 523.14L25.48 523.1L25.38 523.07L25.27 523.04L25.17 523.03L25.07 523.02L24.97 523.02L24.87 523.02L24.78 523.04L24.68 523.07L24.59 523.1L24.5 523.14L24.42 523.19L24.34 523.25L24.26 523.32L24.19 523.39L24.12 523.47L24.06 523.56ZM33.57 490.62L33.78 493.64L36.39 495.32L33.58 496.28L32.92 499.18L30.97 496.76L27.94 496.86L29.55 494.41L28.34 491.57L31.29 492.48L33.57 490.62Z" id="arvDtgL0C"/><path d="M440.23 352.04C440.23 376.6 420.29 396.54 395.73 396.54C371.17 396.54 351.23 376.6 351.23 352.04C351.23 327.48 371.17 307.54 395.73 307.54C420.29 307.54 440.23 327.48 440.23 352.04Z" id="aE2rWBKby"/><radialGradient id="gradienta13VXtY7q3" gradientUnits="userSpaceOnUse" cx="395.73" cy="352.04" dx="407.54" dy="396.54" r="46.04"><stop style="stop-color: #ff0000;stop-opacity: 1" offset="0%"/><stop style="stop-color: #ffffff;stop-opacity: 0" offset="100%"/></radialGradient><path d="M373.23 389.91C373.23 414.47 353.29 434.41 328.73 434.41C304.17 434.41 284.23 414.47 284.23 389.91C284.23 365.35 304.17 345.41 328.73 345.41C353.29 345.41 373.23 365.35 373.23 389.91Z" id="a26cgqaiu"/><radialGradient id="gradientb8BATXgw3" gradientUnits="userSpaceOnUse" cx="324.73" cy="389.91" dx="336.54" dy="434.41" r="46.04"><stop style="stop-color: #eaff00;stop-opacity: 1" offset="0%"/><stop style="stop-color: #ffffff;stop-opacity: 0" offset="100%"/></radialGradient><path d="M305.23 423.73C305.23 448.29 285.29 468.23 260.73 468.23C236.17 468.23 216.23 448.29 216.23 423.73C216.23 399.17 236.17 379.23 260.73 379.23C285.29 379.23 305.23 399.17 305.23 423.73Z" id="a6dRPceN"/><radialGradient id="gradientc5Sqxak0E" gradientUnits="userSpaceOnUse" cx="256.73" cy="423.73" dx="268.54" dy="468.23" r="46.04"><stop style="stop-color: #ff0000;stop-opacity: 1" offset="0%"/><stop style="stop-color: #ffffff;stop-opacity: 0" offset="100%"/></radialGradient><path d="M156.23 494.37C156.23 518.93 136.29 538.87 111.73 538.87C87.17 538.87 67.23 518.93 67.23 494.37C67.23 469.81 87.17 449.87 111.73 449.87C136.29 449.87 156.23 469.81 156.23 494.37Z" id="c2ggKJEEP"/><radialGradient id="gradientc1JriAmYZq" gradientUnits="userSpaceOnUse" cx="107.73" cy="494.37" dx="119.54" dy="538.87" r="46.04"><stop style="stop-color: #ff0000;stop-opacity: 1" offset="0%"/><stop style="stop-color: #ffffff;stop-opacity: 0" offset="100%"/></radialGradient><path d="M85.73 530.69C85.73 555.25 65.79 575.19 41.23 575.19C16.67 575.19 -3.27 555.25 -3.27 530.69C-3.27 506.13 16.67 486.19 41.23 486.19C65.79 486.19 85.73 506.13 85.73 530.69Z" id="d3bvYx8QK7"/><radialGradient id="gradientcX8kTJO7l" gradientUnits="userSpaceOnUse" cx="37.23" cy="530.69" dx="49.04" dy="575.19" r="46.04"><stop style="stop-color: #eaff00;stop-opacity: 1" offset="0%"/><stop style="stop-color: #ffffff;stop-opacity: 0" offset="100%"/></radialGradient><path d="M176.06 438.09L179.05 437.47L179.89 441.31L180.12 441.32L180.71 441.37L181.31 441.44L181.9 441.54L182.48 441.66L183.07 441.8L183.65 441.97L184.22 442.16L184.79 442.37L185.35 442.6L185.91 442.86L186.46 443.14L186.99 443.45L187.52 443.77L188.04 444.12L188.55 444.5L189.05 444.89L189.54 445.31L190.01 445.75L190.45 446.21L190.88 446.67L191.28 447.15L191.66 447.65L192.02 448.15L192.35 448.67L192.67 449.19L192.96 449.73L193.23 450.27L193.48 450.82L193.7 451.38L193.91 451.95L194.09 452.52L194.25 453.1L194.38 453.68L194.5 454.26L194.59 454.85L194.65 455.44L194.7 456.04L194.72 456.63L194.72 457.22L194.7 457.82L194.66 458.41L194.59 459L194.5 459.59L194.38 460.18L194.25 460.76L194.09 461.34L193.9 461.91L193.7 462.47L193.47 463.03L193.22 463.58L192.94 464.13L192.64 464.66L192.32 465.19L191.98 465.7L191.61 466.21L191.22 466.7L190.8 467.18L190.37 467.65L189.92 468.09L189.45 468.51L188.98 468.9L188.49 469.28L187.99 469.63L187.48 469.96L186.95 470.27L186.42 470.56L185.88 470.82L185.33 471.06L184.77 471.28L184.21 471.48L183.64 471.65L183.06 471.8L182.48 471.93L181.9 472.04L181.31 472.12L180.72 472.19L180.12 472.23L179.53 472.24L178.93 472.24L178.34 472.21L177.74 472.16L177.15 472.08L176.56 471.98L175.97 471.86L175.39 471.72L174.81 471.56L174.23 471.37L173.67 471.16L173.1 470.92L172.55 470.66L172 470.38L171.46 470.08L170.93 469.75L170.41 469.4L169.9 469.03L169.41 468.63L168.92 468.21L168.45 467.77L168.01 467.32L167.58 466.85L167.18 466.37L166.8 465.88L166.44 465.37L166.1 464.86L165.79 464.33L165.5 463.8L165.23 463.26L164.98 462.7L164.75 462.14L164.55 461.58L164.37 461.01L164.21 460.43L164.07 459.85L163.96 459.26L163.87 458.67L163.8 458.08L163.76 457.49L163.73 456.9L163.73 456.3L163.76 455.71L163.8 455.11L163.87 454.52L163.96 453.93L164.07 453.35L164.21 452.77L164.37 452.19L164.55 451.62L164.76 451.05L164.99 450.49L165.24 449.94L165.52 449.4L165.81 448.86L166.14 448.34L166.48 447.82L166.85 447.32L167.24 446.82L167.66 446.34L168.09 445.88L168.54 445.44L169 445.02L169.48 444.62L169.97 444.25L170.47 443.89L170.98 443.56L171.5 443.26L171.76 443.12L170.9 439.16L175.01 438.31L173.83 433.14L174.87 432.91L176.06 438.09ZM165.56 455.8L165.5 455.9L165.44 456L165.39 456.1L165.34 456.22L165.29 456.34L165.25 456.47L165.21 456.6L165.18 456.74L165.15 456.88L165.13 457.03L165.11 457.18L165.09 457.34L165.08 457.5L165.07 457.67L165.06 457.84L165.06 458.02L165.07 458.2L165.07 458.38L165.09 458.57L165.1 458.76L165.12 458.95L165.15 459.14L165.18 459.34L165.21 459.54L165.25 459.75L165.29 459.95L165.34 460.16L165.39 460.37L165.45 460.58L165.51 460.79L165.57 461.01L165.64 461.22L165.71 461.44L165.79 461.65L165.87 461.85L165.95 462.06L166.03 462.25L166.12 462.45L166.21 462.64L166.3 462.83L166.39 463.01L166.48 463.19L166.58 463.36L166.68 463.53L166.78 463.69L166.88 463.85L166.98 464L167.09 464.15L167.19 464.29L167.3 464.43L167.4 464.56L167.51 464.68L167.62 464.8L167.73 464.91L167.84 465.02L167.95 465.12L168.06 465.21L168.16 465.3L168.27 465.37L168.38 465.45L168.49 465.51L168.6 465.57L168.7 465.62L168.81 465.66L168.91 465.69L169.02 465.72L169.12 465.73L169.22 465.74L169.32 465.74L169.42 465.74L169.52 465.72L169.61 465.69L169.7 465.66L169.79 465.62L169.87 465.57L169.95 465.51L170.03 465.44L170.1 465.37L170.17 465.29L170.24 465.2L170.3 465.11L170.35 465L170.41 464.9L170.46 464.78L170.5 464.66L170.54 464.54L170.58 464.4L170.61 464.27L170.64 464.12L170.67 463.97L170.69 463.82L170.7 463.66L170.72 463.5L170.73 463.33L170.73 463.16L170.73 462.98L170.73 462.81L170.72 462.62L170.71 462.44L170.69 462.25L170.67 462.05L170.64 461.86L170.61 461.66L170.58 461.46L170.54 461.25L170.5 461.05L170.45 460.84L170.4 460.63L170.35 460.42L170.29 460.21L170.22 459.99L170.15 459.78L170.08 459.57L170.01 459.36L169.93 459.15L169.85 458.95L169.76 458.75L169.68 458.55L169.59 458.36L169.5 458.17L169.4 457.99L169.31 457.81L169.21 457.64L169.11 457.47L169.01 457.31L168.91 457.15L168.81 457L168.71 456.85L168.6 456.71L168.49 456.57L168.39 456.44L168.28 456.32L168.17 456.2L168.06 456.09L167.96 455.98L167.85 455.88L167.74 455.79L167.63 455.71L167.52 455.63L167.41 455.56L167.3 455.49L167.2 455.44L167.09 455.39L166.98 455.34L166.88 455.31L166.77 455.29L166.67 455.27L166.57 455.26L166.47 455.26L166.37 455.27L166.28 455.28L166.18 455.31L166.09 455.34L166 455.38L165.92 455.43L165.84 455.49L165.76 455.56L165.69 455.63L165.62 455.71L165.56 455.8ZM175.07 422.86L175.28 425.88L177.89 427.57L175.08 428.53L174.42 431.43L172.47 429L169.44 429.11L171.05 426.65L169.84 423.81L172.79 424.72L175.07 422.86Z" id="b7gNwxOn2"/><path d="M225.73 458.56C225.73 483.12 205.79 503.06 181.23 503.06C156.67 503.06 136.73 483.12 136.73 458.56C136.73 434 156.67 414.06 181.23 414.06C205.79 414.06 225.73 434 225.73 458.56Z" id="asIs3esIN"/><radialGradient id="gradientjBywt2tz5" gradientUnits="userSpaceOnUse" cx="177.23" cy="458.56" dx="189.04" dy="503.06" r="46.04"><stop style="stop-color: #eaff00;stop-opacity: 1" offset="0%"/><stop style="stop-color: #ffffff;stop-opacity: 0" offset="100%"/></radialGradient><path d="M1531.61 327.9L1528.7 326.97L1527.46 330.7L1527.23 330.68L1526.64 330.67L1526.04 330.68L1525.44 330.72L1524.85 330.78L1524.25 330.86L1523.66 330.96L1523.07 331.09L1522.48 331.24L1521.89 331.42L1521.31 331.61L1520.74 331.84L1520.17 332.08L1519.61 332.35L1519.06 332.65L1518.51 332.96L1517.98 333.31L1517.45 333.67L1516.94 334.06L1516.45 334.47L1515.98 334.89L1515.52 335.32L1515.09 335.77L1514.69 336.24L1514.3 336.71L1513.93 337.2L1513.58 337.7L1513.26 338.22L1512.95 338.74L1512.67 339.27L1512.41 339.81L1512.17 340.36L1511.95 340.92L1511.76 341.48L1511.58 342.05L1511.43 342.63L1511.3 343.21L1511.19 343.8L1511.11 344.38L1511.05 344.98L1511.01 345.57L1510.99 346.16L1511 346.76L1511.02 347.35L1511.08 347.95L1511.15 348.54L1511.25 349.13L1511.37 349.72L1511.52 350.3L1511.69 350.88L1511.88 351.46L1512.1 352.03L1512.34 352.59L1512.6 353.15L1512.89 353.7L1513.21 354.24L1513.54 354.77L1513.91 355.29L1514.29 355.8L1514.69 356.28L1515.11 356.75L1515.54 357.19L1515.99 357.62L1516.45 358.02L1516.92 358.4L1517.41 358.76L1517.91 359.1L1518.42 359.42L1518.94 359.72L1519.47 360L1520.01 360.25L1520.56 360.48L1521.12 360.69L1521.69 360.88L1522.26 361.05L1522.83 361.2L1523.41 361.32L1524 361.42L1524.59 361.5L1525.18 361.56L1525.78 361.59L1526.37 361.6L1526.97 361.59L1527.57 361.55L1528.16 361.5L1528.76 361.42L1529.35 361.31L1529.94 361.18L1530.53 361.03L1531.12 360.86L1531.7 360.66L1532.27 360.44L1532.84 360.19L1533.4 359.92L1533.95 359.63L1534.5 359.31L1535.03 358.97L1535.56 358.6L1536.07 358.21L1536.56 357.81L1537.03 357.39L1537.49 356.95L1537.92 356.5L1538.32 356.04L1538.71 355.56L1539.08 355.07L1539.43 354.57L1539.75 354.06L1540.06 353.53L1540.34 353L1540.6 352.46L1540.84 351.91L1541.06 351.35L1541.25 350.79L1541.43 350.22L1541.58 349.64L1541.71 349.06L1541.82 348.48L1541.9 347.89L1541.96 347.3L1542 346.7L1542.02 346.11L1542.01 345.51L1541.99 344.92L1541.93 344.33L1541.86 343.73L1541.76 343.14L1541.64 342.55L1541.49 341.97L1541.32 341.39L1541.13 340.81L1540.91 340.24L1540.67 339.68L1540.41 339.12L1540.12 338.58L1539.8 338.04L1539.47 337.5L1539.1 336.98L1538.72 336.48L1538.32 335.99L1537.9 335.53L1537.47 335.08L1537.02 334.66L1536.56 334.25L1536.09 333.87L1535.6 333.51L1535.36 333.35L1536.63 329.5L1532.63 328.22L1534.34 323.21L1533.33 322.87L1531.61 327.9ZM1540.2 346.61L1540.25 346.71L1540.3 346.82L1540.34 346.93L1540.38 347.05L1540.41 347.17L1540.44 347.3L1540.46 347.44L1540.48 347.58L1540.49 347.72L1540.5 347.87L1540.51 348.03L1540.51 348.19L1540.5 348.35L1540.49 348.52L1540.48 348.69L1540.46 348.86L1540.44 349.04L1540.41 349.22L1540.38 349.41L1540.34 349.59L1540.3 349.78L1540.26 349.98L1540.21 350.17L1540.15 350.37L1540.09 350.57L1540.03 350.77L1539.96 350.97L1539.89 351.17L1539.81 351.38L1539.73 351.58L1539.64 351.79L1539.55 351.99L1539.46 352.2L1539.36 352.4L1539.26 352.6L1539.16 352.79L1539.06 352.98L1538.95 353.16L1538.84 353.34L1538.73 353.52L1538.62 353.69L1538.51 353.86L1538.39 354.02L1538.28 354.18L1538.16 354.33L1538.04 354.48L1537.93 354.62L1537.81 354.75L1537.69 354.88L1537.57 355.01L1537.45 355.13L1537.33 355.24L1537.21 355.34L1537.09 355.44L1536.97 355.54L1536.85 355.62L1536.73 355.71L1536.62 355.78L1536.5 355.85L1536.38 355.91L1536.27 355.96L1536.16 356L1536.05 356.04L1535.94 356.07L1535.83 356.09L1535.72 356.11L1535.62 356.11L1535.52 356.11L1535.42 356.1L1535.32 356.09L1535.23 356.06L1535.14 356.02L1535.05 355.98L1534.97 355.93L1534.89 355.87L1534.81 355.8L1534.75 355.73L1534.68 355.65L1534.62 355.56L1534.57 355.47L1534.52 355.37L1534.47 355.26L1534.43 355.15L1534.39 355.03L1534.36 354.9L1534.33 354.77L1534.31 354.64L1534.29 354.5L1534.28 354.35L1534.27 354.2L1534.26 354.05L1534.26 353.89L1534.27 353.73L1534.27 353.56L1534.29 353.39L1534.31 353.21L1534.33 353.03L1534.36 352.85L1534.39 352.67L1534.42 352.48L1534.47 352.29L1534.51 352.1L1534.56 351.91L1534.62 351.71L1534.67 351.51L1534.74 351.31L1534.81 351.11L1534.88 350.91L1534.96 350.7L1535.04 350.5L1535.12 350.29L1535.22 350.08L1535.31 349.88L1535.41 349.68L1535.51 349.48L1535.61 349.29L1535.71 349.1L1535.82 348.91L1535.93 348.73L1536.04 348.56L1536.15 348.39L1536.26 348.22L1536.37 348.06L1536.49 347.9L1536.61 347.75L1536.72 347.6L1536.84 347.46L1536.96 347.32L1537.08 347.19L1537.2 347.07L1537.32 346.95L1537.44 346.84L1537.56 346.73L1537.68 346.63L1537.8 346.54L1537.92 346.45L1538.04 346.37L1538.15 346.3L1538.27 346.23L1538.38 346.17L1538.5 346.12L1538.61 346.07L1538.72 346.04L1538.83 346.01L1538.94 345.98L1539.05 345.97L1539.15 345.96L1539.25 345.96L1539.35 345.97L1539.45 345.99L1539.54 346.02L1539.63 346.05L1539.72 346.1L1539.8 346.15L1539.88 346.21L1539.95 346.27L1540.02 346.35L1540.09 346.43L1540.15 346.51L1540.2 346.61ZM1534.19 312.86L1533.66 315.84L1530.88 317.24L1533.58 318.49L1533.94 321.44L1536.13 319.23L1539.13 319.65L1537.78 317.04L1539.28 314.35L1536.26 314.94L1534.19 312.86Z" id="b3dZ5enmmS"/><path d="M1598.47 371L1595.56 370.07L1594.32 373.8L1594.09 373.78L1593.5 373.77L1592.9 373.78L1592.3 373.82L1591.71 373.88L1591.11 373.96L1590.52 374.06L1589.93 374.19L1589.34 374.34L1588.75 374.52L1588.18 374.71L1587.6 374.94L1587.03 375.18L1586.47 375.45L1585.92 375.75L1585.37 376.06L1584.84 376.41L1584.31 376.77L1583.8 377.16L1583.31 377.57L1582.84 377.99L1582.39 378.42L1581.96 378.87L1581.55 379.34L1581.16 379.81L1580.79 380.3L1580.44 380.8L1580.12 381.32L1579.81 381.84L1579.53 382.37L1579.27 382.91L1579.03 383.46L1578.81 384.02L1578.62 384.58L1578.44 385.15L1578.29 385.73L1578.16 386.31L1578.05 386.9L1577.97 387.48L1577.91 388.08L1577.87 388.67L1577.85 389.26L1577.86 389.86L1577.89 390.45L1577.94 391.05L1578.01 391.64L1578.11 392.23L1578.23 392.82L1578.38 393.4L1578.55 393.98L1578.74 394.56L1578.96 395.13L1579.2 395.69L1579.46 396.25L1579.75 396.8L1580.07 397.34L1580.41 397.87L1580.77 398.39L1581.15 398.9L1581.55 399.38L1581.97 399.85L1582.4 400.29L1582.85 400.72L1583.31 401.12L1583.78 401.5L1584.27 401.86L1584.77 402.2L1585.28 402.52L1585.8 402.82L1586.34 403.1L1586.88 403.35L1587.43 403.58L1587.98 403.79L1588.55 403.98L1589.12 404.15L1589.69 404.3L1590.27 404.42L1590.86 404.52L1591.45 404.6L1592.04 404.66L1592.64 404.69L1593.23 404.7L1593.83 404.69L1594.43 404.65L1595.03 404.6L1595.62 404.52L1596.21 404.41L1596.81 404.28L1597.39 404.13L1597.98 403.96L1598.56 403.76L1599.13 403.54L1599.7 403.29L1600.26 403.02L1600.81 402.73L1601.36 402.41L1601.89 402.07L1602.42 401.7L1602.93 401.31L1603.42 400.91L1603.9 400.49L1604.35 400.05L1604.78 399.6L1605.19 399.14L1605.57 398.66L1605.94 398.17L1606.29 397.67L1606.61 397.16L1606.92 396.63L1607.2 396.1L1607.46 395.56L1607.7 395.01L1607.92 394.45L1608.11 393.89L1608.29 393.32L1608.44 392.74L1608.57 392.16L1608.68 391.58L1608.76 390.99L1608.82 390.4L1608.86 389.8L1608.88 389.21L1608.88 388.61L1608.85 388.02L1608.79 387.43L1608.72 386.83L1608.62 386.24L1608.5 385.65L1608.35 385.07L1608.18 384.49L1607.99 383.91L1607.77 383.34L1607.53 382.78L1607.27 382.22L1606.98 381.68L1606.67 381.14L1606.33 380.6L1605.96 380.08L1605.58 379.58L1605.18 379.09L1604.76 378.63L1604.33 378.18L1603.88 377.76L1603.42 377.35L1602.95 376.97L1602.46 376.61L1602.22 376.45L1603.49 372.6L1599.49 371.32L1601.2 366.31L1600.2 365.97L1598.47 371ZM1607.06 389.71L1607.11 389.81L1607.16 389.92L1607.2 390.03L1607.24 390.15L1607.27 390.27L1607.3 390.4L1607.32 390.54L1607.34 390.68L1607.35 390.82L1607.36 390.97L1607.37 391.13L1607.37 391.29L1607.36 391.45L1607.36 391.62L1607.34 391.79L1607.32 391.96L1607.3 392.14L1607.27 392.32L1607.24 392.51L1607.21 392.69L1607.16 392.88L1607.12 393.08L1607.07 393.27L1607.01 393.47L1606.96 393.67L1606.89 393.87L1606.82 394.07L1606.75 394.27L1606.67 394.48L1606.59 394.68L1606.51 394.89L1606.41 395.09L1606.32 395.3L1606.22 395.5L1606.12 395.7L1606.02 395.89L1605.92 396.08L1605.81 396.26L1605.7 396.44L1605.59 396.62L1605.48 396.79L1605.37 396.96L1605.26 397.12L1605.14 397.28L1605.02 397.43L1604.91 397.58L1604.79 397.72L1604.67 397.85L1604.55 397.98L1604.43 398.11L1604.31 398.23L1604.19 398.34L1604.07 398.44L1603.95 398.54L1603.83 398.64L1603.71 398.72L1603.59 398.81L1603.48 398.88L1603.36 398.95L1603.25 399.01L1603.13 399.06L1603.02 399.1L1602.91 399.14L1602.8 399.17L1602.69 399.19L1602.58 399.21L1602.48 399.21L1602.38 399.21L1602.28 399.2L1602.18 399.19L1602.09 399.16L1602 399.12L1601.91 399.08L1601.83 399.03L1601.75 398.97L1601.68 398.9L1601.61 398.83L1601.54 398.75L1601.48 398.66L1601.43 398.57L1601.38 398.47L1601.33 398.36L1601.29 398.25L1601.25 398.13L1601.22 398L1601.19 397.87L1601.17 397.74L1601.15 397.6L1601.14 397.45L1601.13 397.3L1601.12 397.15L1601.12 396.99L1601.13 396.83L1601.14 396.66L1601.15 396.49L1601.17 396.31L1601.19 396.13L1601.22 395.95L1601.25 395.77L1601.29 395.58L1601.33 395.39L1601.37 395.2L1601.42 395.01L1601.48 394.81L1601.54 394.61L1601.6 394.41L1601.67 394.21L1601.74 394.01L1601.82 393.8L1601.9 393.6L1601.99 393.39L1602.08 393.18L1602.17 392.98L1602.27 392.78L1602.37 392.58L1602.47 392.39L1602.57 392.2L1602.68 392.01L1602.79 391.83L1602.9 391.66L1603.01 391.49L1603.12 391.32L1603.24 391.16L1603.35 391L1603.47 390.85L1603.59 390.7L1603.7 390.56L1603.82 390.42L1603.94 390.29L1604.06 390.17L1604.18 390.05L1604.3 389.94L1604.42 389.83L1604.54 389.73L1604.66 389.64L1604.78 389.55L1604.9 389.47L1605.01 389.4L1605.13 389.33L1605.25 389.27L1605.36 389.22L1605.47 389.17L1605.58 389.14L1605.69 389.11L1605.8 389.08L1605.91 389.07L1606.01 389.06L1606.11 389.06L1606.21 389.07L1606.31 389.09L1606.4 389.12L1606.49 389.15L1606.58 389.2L1606.66 389.25L1606.74 389.31L1606.82 389.37L1606.88 389.45L1606.95 389.53L1607.01 389.61L1607.06 389.71ZM1601.05 355.96L1600.52 358.94L1597.75 360.34L1600.45 361.59L1600.8 364.54L1602.99 362.33L1605.99 362.75L1604.64 360.14L1606.14 357.45L1603.12 358.04L1601.05 355.96Z" id="dyVvgbHYe"/><path d="M1664.38 413.12L1661.46 412.19L1660.23 415.92L1660 415.9L1659.4 415.89L1658.8 415.9L1658.21 415.94L1657.61 416L1657.01 416.08L1656.42 416.18L1655.83 416.31L1655.24 416.46L1654.66 416.64L1654.08 416.83L1653.5 417.06L1652.94 417.3L1652.38 417.57L1651.82 417.87L1651.28 418.18L1650.74 418.53L1650.21 418.89L1649.7 419.28L1649.21 419.68L1648.74 420.11L1648.29 420.54L1647.86 420.99L1647.45 421.45L1647.06 421.93L1646.69 422.42L1646.35 422.92L1646.02 423.44L1645.72 423.96L1645.44 424.49L1645.17 425.03L1644.93 425.58L1644.72 426.14L1644.52 426.7L1644.35 427.27L1644.19 427.85L1644.07 428.43L1643.96 429.02L1643.87 429.6L1643.81 430.19L1643.77 430.79L1643.75 431.38L1643.76 431.98L1643.79 432.57L1643.84 433.17L1643.92 433.76L1644.01 434.35L1644.14 434.94L1644.28 435.52L1644.45 436.1L1644.64 436.68L1644.86 437.25L1645.1 437.81L1645.37 438.37L1645.66 438.92L1645.97 439.46L1646.31 439.99L1646.67 440.51L1647.05 441.02L1647.46 441.5L1647.87 441.97L1648.3 442.41L1648.75 442.84L1649.21 443.24L1649.69 443.62L1650.18 443.98L1650.67 444.32L1651.19 444.64L1651.71 444.94L1652.24 445.22L1652.78 445.47L1653.33 445.7L1653.89 445.91L1654.45 446.1L1655.02 446.27L1655.6 446.42L1656.18 446.54L1656.76 446.64L1657.35 446.72L1657.95 446.78L1658.54 446.81L1659.14 446.82L1659.73 446.81L1660.33 446.77L1660.93 446.72L1661.52 446.63L1662.12 446.53L1662.71 446.4L1663.3 446.25L1663.88 446.08L1664.46 445.88L1665.03 445.66L1665.6 445.41L1666.16 445.14L1666.72 444.85L1667.26 444.53L1667.8 444.19L1668.32 443.82L1668.84 443.43L1669.33 443.03L1669.8 442.61L1670.25 442.17L1670.68 441.72L1671.09 441.26L1671.48 440.78L1671.84 440.29L1672.19 439.79L1672.52 439.28L1672.82 438.75L1673.1 438.22L1673.36 437.68L1673.6 437.13L1673.82 436.57L1674.02 436.01L1674.19 435.44L1674.34 434.86L1674.47 434.28L1674.58 433.7L1674.67 433.11L1674.73 432.52L1674.77 431.92L1674.78 431.33L1674.78 430.73L1674.75 430.14L1674.7 429.54L1674.62 428.95L1674.52 428.36L1674.4 427.77L1674.26 427.19L1674.09 426.61L1673.89 426.03L1673.68 425.46L1673.44 424.9L1673.17 424.34L1672.88 423.8L1672.57 423.26L1672.23 422.72L1671.87 422.2L1671.48 421.7L1671.08 421.21L1670.67 420.75L1670.23 420.3L1669.79 419.88L1669.33 419.47L1668.85 419.09L1668.36 418.73L1668.12 418.56L1669.39 414.72L1665.39 413.44L1667.11 408.43L1666.1 408.09L1664.38 413.12ZM1672.97 431.83L1673.02 431.93L1673.06 432.04L1673.1 432.15L1673.14 432.27L1673.17 432.39L1673.2 432.52L1673.22 432.66L1673.24 432.8L1673.26 432.94L1673.27 433.09L1673.27 433.25L1673.27 433.41L1673.27 433.57L1673.26 433.74L1673.24 433.91L1673.23 434.08L1673.2 434.26L1673.18 434.44L1673.14 434.63L1673.11 434.81L1673.07 435L1673.02 435.2L1672.97 435.39L1672.92 435.59L1672.86 435.79L1672.79 435.99L1672.73 436.19L1672.65 436.39L1672.58 436.59L1672.49 436.8L1672.41 437.01L1672.32 437.21L1672.22 437.42L1672.13 437.62L1672.03 437.81L1671.92 438.01L1671.82 438.2L1671.71 438.38L1671.61 438.56L1671.5 438.74L1671.39 438.91L1671.27 439.08L1671.16 439.24L1671.04 439.4L1670.93 439.55L1670.81 439.69L1670.69 439.84L1670.57 439.97L1670.45 440.1L1670.33 440.23L1670.21 440.34L1670.09 440.46L1669.97 440.56L1669.85 440.66L1669.73 440.76L1669.62 440.84L1669.5 440.92L1669.38 441L1669.26 441.07L1669.15 441.12L1669.03 441.18L1668.92 441.22L1668.81 441.26L1668.7 441.29L1668.59 441.31L1668.49 441.33L1668.38 441.33L1668.28 441.33L1668.18 441.32L1668.09 441.3L1667.99 441.28L1667.9 441.24L1667.81 441.2L1667.73 441.15L1667.65 441.09L1667.58 441.02L1667.51 440.95L1667.45 440.87L1667.39 440.78L1667.33 440.69L1667.28 440.59L1667.23 440.48L1667.19 440.37L1667.16 440.25L1667.12 440.12L1667.1 439.99L1667.07 439.86L1667.05 439.72L1667.04 439.57L1667.03 439.42L1667.03 439.27L1667.03 439.11L1667.03 438.95L1667.04 438.78L1667.05 438.61L1667.07 438.43L1667.09 438.25L1667.12 438.07L1667.15 437.89L1667.19 437.7L1667.23 437.51L1667.27 437.32L1667.32 437.13L1667.38 436.93L1667.44 436.73L1667.5 436.53L1667.57 436.33L1667.64 436.13L1667.72 435.92L1667.8 435.72L1667.89 435.51L1667.98 435.3L1668.07 435.1L1668.17 434.9L1668.27 434.7L1668.37 434.51L1668.48 434.32L1668.58 434.13L1668.69 433.95L1668.8 433.78L1668.91 433.61L1669.02 433.44L1669.14 433.28L1669.25 433.12L1669.37 432.97L1669.49 432.82L1669.61 432.68L1669.73 432.54L1669.84 432.41L1669.96 432.29L1670.08 432.17L1670.2 432.06L1670.32 431.95L1670.44 431.85L1670.56 431.76L1670.68 431.67L1670.8 431.59L1670.92 431.52L1671.03 431.45L1671.15 431.39L1671.26 431.34L1671.37 431.29L1671.49 431.26L1671.6 431.23L1671.7 431.2L1671.81 431.19L1671.91 431.18L1672.01 431.18L1672.11 431.19L1672.21 431.21L1672.3 431.24L1672.4 431.27L1672.48 431.32L1672.57 431.37L1672.64 431.43L1672.72 431.49L1672.79 431.57L1672.85 431.65L1672.91 431.73L1672.97 431.83ZM1666.95 398.08L1666.43 401.06L1663.65 402.46L1666.35 403.71L1666.7 406.66L1668.9 404.45L1671.89 404.87L1670.55 402.26L1672.05 399.57L1669.02 400.16L1666.95 398.08Z" id="f2Rgey6Py9"/><path d="M1804.15 499.66L1801.24 498.73L1800 502.46L1799.77 502.45L1799.18 502.44L1798.58 502.45L1797.98 502.48L1797.38 502.54L1796.79 502.62L1796.2 502.73L1795.6 502.85L1795.02 503L1794.43 503.18L1793.85 503.38L1793.28 503.6L1792.71 503.84L1792.15 504.11L1791.6 504.41L1791.05 504.73L1790.52 505.07L1789.99 505.44L1789.48 505.82L1788.99 506.23L1788.51 506.65L1788.06 507.08L1787.63 507.53L1787.22 508L1786.84 508.48L1786.47 508.96L1786.12 509.47L1785.8 509.98L1785.49 510.5L1785.21 511.03L1784.95 511.58L1784.71 512.13L1784.49 512.68L1784.3 513.25L1784.12 513.82L1783.97 514.39L1783.84 514.97L1783.73 515.56L1783.65 516.15L1783.59 516.74L1783.55 517.33L1783.53 517.93L1783.53 518.52L1783.56 519.12L1783.62 519.71L1783.69 520.3L1783.79 520.89L1783.91 521.48L1784.06 522.07L1784.23 522.65L1784.42 523.22L1784.64 523.79L1784.88 524.36L1785.14 524.91L1785.43 525.46L1785.74 526L1786.08 526.53L1786.45 527.05L1786.83 527.56L1787.23 528.04L1787.65 528.51L1788.08 528.95L1788.53 529.38L1788.99 529.78L1789.46 530.16L1789.95 530.53L1790.45 530.87L1790.96 531.18L1791.48 531.48L1792.01 531.76L1792.55 532.01L1793.1 532.25L1793.66 532.46L1794.22 532.65L1794.79 532.81L1795.37 532.96L1795.95 533.08L1796.54 533.18L1797.13 533.26L1797.72 533.32L1798.32 533.35L1798.91 533.36L1799.51 533.35L1800.11 533.32L1800.7 533.26L1801.3 533.18L1801.89 533.07L1802.48 532.95L1803.07 532.8L1803.66 532.62L1804.23 532.42L1804.81 532.2L1805.38 531.95L1805.94 531.68L1806.49 531.39L1807.04 531.07L1807.57 530.73L1808.1 530.36L1808.61 529.98L1809.1 529.57L1809.57 529.15L1810.02 528.71L1810.45 528.26L1810.86 527.8L1811.25 527.32L1811.62 526.83L1811.97 526.33L1812.29 525.82L1812.6 525.3L1812.88 524.77L1813.14 524.22L1813.38 523.67L1813.6 523.12L1813.79 522.55L1813.97 521.98L1814.12 521.41L1814.25 520.82L1814.36 520.24L1814.44 519.65L1814.5 519.06L1814.54 518.47L1814.56 517.87L1814.55 517.28L1814.52 516.68L1814.47 516.09L1814.4 515.5L1814.3 514.9L1814.18 514.32L1814.03 513.73L1813.86 513.15L1813.67 512.58L1813.45 512.01L1813.21 511.44L1812.95 510.89L1812.66 510.34L1812.34 509.8L1812 509.27L1811.64 508.75L1811.26 508.24L1810.86 507.75L1810.44 507.29L1810.01 506.84L1809.56 506.42L1809.1 506.02L1808.63 505.63L1808.14 505.27L1807.9 505.11L1809.17 501.26L1805.16 499.99L1806.88 494.97L1805.87 494.63L1804.15 499.66ZM1812.74 518.37L1812.79 518.47L1812.84 518.58L1812.88 518.69L1812.92 518.81L1812.95 518.94L1812.98 519.07L1813 519.2L1813.02 519.34L1813.03 519.49L1813.04 519.64L1813.05 519.79L1813.05 519.95L1813.04 520.11L1813.03 520.28L1813.02 520.45L1813 520.63L1812.98 520.81L1812.95 520.99L1812.92 521.17L1812.88 521.36L1812.84 521.55L1812.8 521.74L1812.75 521.93L1812.69 522.13L1812.63 522.33L1812.57 522.53L1812.5 522.73L1812.43 522.93L1812.35 523.14L1812.27 523.34L1812.18 523.55L1812.09 523.76L1812 523.96L1811.9 524.16L1811.8 524.36L1811.7 524.55L1811.6 524.74L1811.49 524.93L1811.38 525.11L1811.27 525.28L1811.16 525.45L1811.05 525.62L1810.93 525.78L1810.82 525.94L1810.7 526.09L1810.58 526.24L1810.47 526.38L1810.35 526.52L1810.23 526.65L1810.11 526.77L1809.99 526.89L1809.87 527L1809.75 527.11L1809.63 527.21L1809.51 527.3L1809.39 527.39L1809.27 527.47L1809.16 527.54L1809.04 527.61L1808.92 527.67L1808.81 527.72L1808.7 527.77L1808.59 527.8L1808.48 527.83L1808.37 527.86L1808.26 527.87L1808.16 527.88L1808.06 527.88L1807.96 527.87L1807.86 527.85L1807.77 527.82L1807.68 527.79L1807.59 527.74L1807.51 527.69L1807.43 527.63L1807.35 527.57L1807.28 527.49L1807.22 527.41L1807.16 527.33L1807.1 527.23L1807.05 527.13L1807.01 527.02L1806.97 526.91L1806.93 526.79L1806.9 526.67L1806.87 526.54L1806.85 526.4L1806.83 526.26L1806.81 526.12L1806.81 525.97L1806.8 525.81L1806.8 525.65L1806.8 525.49L1806.81 525.32L1806.83 525.15L1806.85 524.98L1806.87 524.8L1806.9 524.62L1806.93 524.43L1806.96 524.25L1807 524.06L1807.05 523.86L1807.1 523.67L1807.15 523.47L1807.21 523.27L1807.28 523.07L1807.35 522.87L1807.42 522.67L1807.5 522.46L1807.58 522.26L1807.66 522.05L1807.75 521.85L1807.85 521.64L1807.95 521.44L1808.05 521.25L1808.15 521.05L1808.25 520.86L1808.36 520.68L1808.47 520.5L1808.57 520.32L1808.69 520.15L1808.8 519.98L1808.91 519.82L1809.03 519.66L1809.15 519.51L1809.26 519.36L1809.38 519.22L1809.5 519.09L1809.62 518.96L1809.74 518.83L1809.86 518.71L1809.98 518.6L1810.1 518.5L1810.22 518.4L1810.34 518.3L1810.46 518.22L1810.57 518.13L1810.69 518.06L1810.81 517.99L1810.92 517.93L1811.04 517.88L1811.15 517.84L1811.26 517.8L1811.37 517.77L1811.48 517.75L1811.58 517.73L1811.69 517.73L1811.79 517.73L1811.89 517.74L1811.99 517.75L1812.08 517.78L1812.17 517.82L1812.26 517.86L1812.34 517.91L1812.42 517.97L1812.49 518.04L1812.56 518.11L1812.63 518.19L1812.69 518.28L1812.74 518.37ZM1806.73 484.62L1806.2 487.6L1803.42 489L1806.12 490.25L1806.48 493.21L1808.67 491L1811.67 491.42L1810.32 488.81L1811.82 486.11L1808.8 486.7L1806.73 484.62Z" id="b14HPi5QxD"/><path d="M1871.01 542.76L1868.1 541.83L1866.86 545.56L1866.63 545.55L1866.04 545.54L1865.44 545.55L1864.84 545.58L1864.25 545.64L1863.65 545.72L1863.06 545.83L1862.47 545.95L1861.88 546.1L1861.29 546.28L1860.71 546.48L1860.14 546.7L1859.57 546.94L1859.01 547.21L1858.46 547.51L1857.91 547.83L1857.38 548.17L1856.85 548.54L1856.34 548.92L1855.85 549.33L1855.38 549.75L1854.92 550.18L1854.49 550.63L1854.09 551.1L1853.7 551.58L1853.33 552.06L1852.98 552.57L1852.66 553.08L1852.35 553.6L1852.07 554.13L1851.81 554.68L1851.57 555.23L1851.35 555.78L1851.16 556.35L1850.98 556.92L1850.83 557.49L1850.7 558.07L1850.59 558.66L1850.51 559.25L1850.45 559.84L1850.41 560.43L1850.39 561.03L1850.4 561.62L1850.42 562.22L1850.48 562.81L1850.55 563.4L1850.65 563.99L1850.77 564.58L1850.92 565.17L1851.09 565.75L1851.28 566.32L1851.5 566.89L1851.74 567.46L1852 568.01L1852.29 568.56L1852.61 569.1L1852.94 569.63L1853.31 570.15L1853.69 570.66L1854.09 571.14L1854.51 571.61L1854.94 572.05L1855.39 572.48L1855.85 572.88L1856.32 573.26L1856.81 573.63L1857.31 573.97L1857.82 574.28L1858.34 574.58L1858.87 574.86L1859.41 575.11L1859.96 575.35L1860.52 575.56L1861.09 575.75L1861.66 575.91L1862.23 576.06L1862.81 576.18L1863.4 576.28L1863.99 576.36L1864.58 576.42L1865.18 576.45L1865.77 576.46L1866.37 576.45L1866.97 576.42L1867.56 576.36L1868.16 576.28L1868.75 576.17L1869.34 576.05L1869.93 575.9L1870.52 575.72L1871.1 575.52L1871.67 575.3L1872.24 575.05L1872.8 574.78L1873.35 574.49L1873.9 574.17L1874.43 573.83L1874.96 573.46L1875.47 573.08L1875.96 572.67L1876.43 572.25L1876.89 571.81L1877.32 571.36L1877.72 570.9L1878.11 570.42L1878.48 569.93L1878.83 569.43L1879.15 568.92L1879.46 568.4L1879.74 567.87L1880 567.32L1880.24 566.77L1880.46 566.22L1880.65 565.65L1880.83 565.08L1880.98 564.51L1881.11 563.92L1881.22 563.34L1881.3 562.75L1881.36 562.16L1881.4 561.57L1881.42 560.97L1881.41 560.38L1881.39 559.78L1881.33 559.19L1881.26 558.6L1881.16 558L1881.04 557.42L1880.89 556.83L1880.72 556.25L1880.53 555.68L1880.31 555.11L1880.07 554.54L1879.81 553.99L1879.52 553.44L1879.2 552.9L1878.87 552.37L1878.5 551.85L1878.12 551.34L1877.72 550.85L1877.3 550.39L1876.87 549.94L1876.42 549.52L1875.96 549.12L1875.49 548.73L1875 548.37L1874.76 548.21L1876.03 544.36L1872.03 543.09L1873.74 538.07L1872.73 537.73L1871.01 542.76ZM1879.6 561.47L1879.65 561.57L1879.7 561.68L1879.74 561.79L1879.78 561.91L1879.81 562.04L1879.84 562.17L1879.86 562.3L1879.88 562.44L1879.89 562.59L1879.9 562.74L1879.91 562.89L1879.91 563.05L1879.9 563.21L1879.89 563.38L1879.88 563.55L1879.86 563.73L1879.84 563.91L1879.81 564.09L1879.78 564.27L1879.74 564.46L1879.7 564.65L1879.66 564.84L1879.61 565.03L1879.55 565.23L1879.49 565.43L1879.43 565.63L1879.36 565.83L1879.29 566.03L1879.21 566.24L1879.13 566.44L1879.04 566.65L1878.95 566.86L1878.86 567.06L1878.76 567.26L1878.66 567.46L1878.56 567.65L1878.46 567.84L1878.35 568.03L1878.24 568.21L1878.13 568.38L1878.02 568.55L1877.91 568.72L1877.79 568.88L1877.68 569.04L1877.56 569.19L1877.44 569.34L1877.33 569.48L1877.21 569.62L1877.09 569.75L1876.97 569.87L1876.85 569.99L1876.73 570.1L1876.61 570.21L1876.49 570.31L1876.37 570.4L1876.25 570.49L1876.13 570.57L1876.02 570.64L1875.9 570.71L1875.78 570.77L1875.67 570.82L1875.56 570.87L1875.45 570.9L1875.34 570.93L1875.23 570.96L1875.12 570.97L1875.02 570.98L1874.92 570.98L1874.82 570.97L1874.72 570.95L1874.63 570.92L1874.54 570.89L1874.45 570.84L1874.37 570.79L1874.29 570.73L1874.21 570.67L1874.15 570.59L1874.08 570.51L1874.02 570.43L1873.97 570.33L1873.92 570.23L1873.87 570.12L1873.83 570.01L1873.79 569.89L1873.76 569.77L1873.73 569.64L1873.71 569.5L1873.69 569.36L1873.68 569.22L1873.67 569.07L1873.66 568.91L1873.66 568.75L1873.67 568.59L1873.67 568.42L1873.69 568.25L1873.71 568.08L1873.73 567.9L1873.76 567.72L1873.79 567.53L1873.82 567.35L1873.87 567.16L1873.91 566.96L1873.96 566.77L1874.02 566.57L1874.07 566.37L1874.14 566.17L1874.21 565.97L1874.28 565.77L1874.36 565.56L1874.44 565.36L1874.52 565.15L1874.62 564.95L1874.71 564.74L1874.81 564.54L1874.91 564.35L1875.01 564.15L1875.11 563.96L1875.22 563.78L1875.33 563.6L1875.44 563.42L1875.55 563.25L1875.66 563.08L1875.77 562.92L1875.89 562.76L1876.01 562.61L1876.12 562.46L1876.24 562.32L1876.36 562.19L1876.48 562.06L1876.6 561.93L1876.72 561.81L1876.84 561.7L1876.96 561.6L1877.08 561.5L1877.2 561.4L1877.32 561.32L1877.44 561.23L1877.55 561.16L1877.67 561.09L1877.78 561.03L1877.9 560.98L1878.01 560.94L1878.12 560.9L1878.23 560.87L1878.34 560.85L1878.45 560.83L1878.55 560.83L1878.65 560.83L1878.75 560.84L1878.85 560.85L1878.94 560.88L1879.03 560.92L1879.12 560.96L1879.2 561.01L1879.28 561.07L1879.35 561.14L1879.42 561.21L1879.49 561.29L1879.55 561.38L1879.6 561.47ZM1873.59 527.72L1873.06 530.7L1870.28 532.1L1872.98 533.35L1873.34 536.31L1875.53 534.1L1878.53 534.52L1877.18 531.91L1878.68 529.21L1875.66 529.8L1873.59 527.72Z" id="bU1b2g8VE"/><path d="M1483.64 347.39C1481.07 371.81 1498.82 393.73 1523.24 396.3C1547.67 398.86 1569.58 381.12 1572.15 356.69C1574.72 332.27 1556.97 310.35 1532.55 307.78C1508.12 305.22 1486.21 322.96 1483.64 347.39Z" id="bOVVUdtZ2"/><radialGradient id="gradienta3n5cDhmd" gradientUnits="userSpaceOnUse" cx="1527.9" cy="352.04" dx="1511.5" dy="395.06" r="46.04"><stop style="stop-color: #ff0000;stop-opacity: 1" offset="0%"/><stop style="stop-color: #ffffff;stop-opacity: 0" offset="100%"/></radialGradient><path d="M1546.31 392.06C1543.75 416.49 1561.49 438.4 1585.92 440.97C1610.34 443.54 1632.26 425.79 1634.83 401.36C1637.39 376.94 1619.65 355.02 1595.22 352.46C1570.8 349.89 1548.88 367.63 1546.31 392.06Z" id="b2Nd0LwdRx"/><radialGradient id="gradienta2PCuFgW04" gradientUnits="userSpaceOnUse" cx="1594.55" cy="397.13" dx="1578.15" dy="440.15" r="46.04"><stop style="stop-color: #eaff00;stop-opacity: 1" offset="0%"/><stop style="stop-color: #ffffff;stop-opacity: 0" offset="100%"/></radialGradient><path d="M1610.41 432.8C1607.84 457.22 1625.59 479.14 1650.01 481.71C1674.44 484.27 1696.35 466.53 1698.92 442.1C1701.49 417.68 1683.74 395.76 1659.31 393.19C1634.89 390.63 1612.97 408.37 1610.41 432.8Z" id="ca5g61Isui"/><radialGradient id="gradientc3DG2uLeZL" gradientUnits="userSpaceOnUse" cx="1658.64" cy="437.87" dx="1642.25" dy="480.89" r="46.04"><stop style="stop-color: #ff0000;stop-opacity: 1" offset="0%"/><stop style="stop-color: #ffffff;stop-opacity: 0" offset="100%"/></radialGradient><path d="M1751.21 518.63C1748.64 543.06 1766.38 564.97 1790.81 567.54C1815.24 570.1 1837.15 552.36 1839.72 527.93C1842.29 503.51 1824.54 481.59 1800.11 479.02C1775.69 476.46 1753.77 494.2 1751.21 518.63Z" id="b2zRjA2VGv"/><radialGradient id="gradientellpoEJt" gradientUnits="userSpaceOnUse" cx="1799.44" cy="523.7" dx="1783.05" dy="566.72" r="46.04"><stop style="stop-color: #ff0000;stop-opacity: 1" offset="0%"/><stop style="stop-color: #ffffff;stop-opacity: 0" offset="100%"/></radialGradient><path d="M1817.52 562.11C1814.95 586.54 1832.7 608.46 1857.12 611.02C1881.55 613.59 1903.46 595.84 1906.03 571.42C1908.6 546.99 1890.85 525.08 1866.43 522.51C1842 519.94 1820.09 537.69 1817.52 562.11Z" id="iJphTRMAW"/><radialGradient id="gradientb2nfKndKe" gradientUnits="userSpaceOnUse" cx="1865.75" cy="567.18" dx="1849.36" dy="610.21" r="46.04"><stop style="stop-color: #eaff00;stop-opacity: 1" offset="0%"/><stop style="stop-color: #ffffff;stop-opacity: 0" offset="100%"/></radialGradient><path d="M1737.37 460.58L1734.45 459.65L1733.22 463.38L1732.99 463.37L1732.4 463.36L1731.8 463.37L1731.2 463.41L1730.6 463.46L1730.01 463.54L1729.41 463.65L1728.82 463.78L1728.24 463.93L1727.65 464.1L1727.07 464.3L1726.5 464.52L1725.93 464.77L1725.37 465.04L1724.82 465.33L1724.27 465.65L1723.73 465.99L1723.21 466.36L1722.7 466.75L1722.2 467.15L1721.73 467.57L1721.28 468.01L1720.85 468.46L1720.44 468.92L1720.05 469.4L1719.69 469.89L1719.34 470.39L1719.02 470.9L1718.71 471.42L1718.43 471.96L1718.17 472.5L1717.93 473.05L1717.71 473.61L1717.51 474.17L1717.34 474.74L1717.19 475.32L1717.06 475.9L1716.95 476.48L1716.87 477.07L1716.8 477.66L1716.76 478.25L1716.75 478.85L1716.75 479.44L1716.78 480.04L1716.83 480.63L1716.91 481.23L1717.01 481.82L1717.13 482.41L1717.28 482.99L1717.44 483.57L1717.64 484.15L1717.85 484.71L1718.1 485.28L1718.36 485.83L1718.65 486.38L1718.96 486.92L1719.3 487.45L1719.66 487.98L1720.05 488.48L1720.45 488.97L1720.87 489.43L1721.3 489.88L1721.75 490.3L1722.21 490.7L1722.68 491.09L1723.17 491.45L1723.67 491.79L1724.18 492.11L1724.7 492.41L1725.23 492.68L1725.77 492.94L1726.32 493.17L1726.88 493.38L1727.44 493.57L1728.01 493.74L1728.59 493.88L1729.17 494.01L1729.76 494.11L1730.35 494.19L1730.94 494.24L1731.53 494.28L1732.13 494.29L1732.73 494.27L1733.32 494.24L1733.92 494.18L1734.52 494.1L1735.11 494L1735.7 493.87L1736.29 493.72L1736.87 493.54L1737.45 493.35L1738.03 493.12L1738.59 492.88L1739.16 492.61L1739.71 492.31L1740.25 492L1740.79 491.65L1741.32 491.29L1741.83 490.9L1742.32 490.49L1742.79 490.07L1743.24 489.64L1743.67 489.19L1744.08 488.72L1744.47 488.25L1744.84 487.76L1745.18 487.26L1745.51 486.74L1745.81 486.22L1746.1 485.69L1746.36 485.15L1746.6 484.6L1746.82 484.04L1747.01 483.48L1747.19 482.9L1747.34 482.33L1747.47 481.75L1747.57 481.16L1747.66 480.57L1747.72 479.98L1747.76 479.39L1747.78 478.8L1747.77 478.2L1747.74 477.61L1747.69 477.01L1747.62 476.42L1747.52 475.83L1747.4 475.24L1747.25 474.66L1747.08 474.08L1746.89 473.5L1746.67 472.93L1746.43 472.37L1746.16 471.81L1745.88 471.26L1745.56 470.72L1745.22 470.19L1744.86 469.67L1744.48 469.16L1744.08 468.68L1743.66 468.21L1743.23 467.77L1742.78 467.34L1742.32 466.94L1741.84 466.56L1741.36 466.2L1741.11 466.03L1742.39 462.19L1738.38 460.91L1740.1 455.89L1739.09 455.56L1737.37 460.58ZM1745.96 479.3L1746.01 479.4L1746.06 479.5L1746.1 479.62L1746.14 479.73L1746.17 479.86L1746.2 479.99L1746.22 480.12L1746.24 480.26L1746.25 480.41L1746.26 480.56L1746.26 480.71L1746.27 480.87L1746.26 481.04L1746.25 481.2L1746.24 481.38L1746.22 481.55L1746.2 481.73L1746.17 481.91L1746.14 482.09L1746.1 482.28L1746.06 482.47L1746.02 482.66L1745.97 482.86L1745.91 483.05L1745.85 483.25L1745.79 483.45L1745.72 483.65L1745.65 483.86L1745.57 484.06L1745.49 484.27L1745.4 484.47L1745.31 484.68L1745.22 484.88L1745.12 485.08L1745.02 485.28L1744.92 485.47L1744.81 485.66L1744.71 485.85L1744.6 486.03L1744.49 486.21L1744.38 486.38L1744.27 486.54L1744.15 486.71L1744.04 486.86L1743.92 487.01L1743.8 487.16L1743.68 487.3L1743.57 487.44L1743.45 487.57L1743.33 487.69L1743.21 487.81L1743.09 487.92L1742.97 488.03L1742.85 488.13L1742.73 488.22L1742.61 488.31L1742.49 488.39L1742.37 488.47L1742.26 488.53L1742.14 488.59L1742.03 488.64L1741.92 488.69L1741.8 488.73L1741.69 488.76L1741.59 488.78L1741.48 488.79L1741.38 488.8L1741.28 488.8L1741.18 488.79L1741.08 488.77L1740.99 488.74L1740.89 488.71L1740.81 488.67L1740.72 488.61L1740.65 488.56L1740.57 488.49L1740.5 488.42L1740.44 488.34L1740.38 488.25L1740.32 488.15L1740.27 488.05L1740.23 487.95L1740.19 487.83L1740.15 487.71L1740.12 487.59L1740.09 487.46L1740.07 487.33L1740.05 487.18L1740.03 487.04L1740.02 486.89L1740.02 486.73L1740.02 486.58L1740.02 486.41L1740.03 486.24L1740.05 486.07L1740.06 485.9L1740.09 485.72L1740.11 485.54L1740.15 485.36L1740.18 485.17L1740.22 484.98L1740.27 484.79L1740.32 484.59L1740.37 484.4L1740.43 484.2L1740.5 484L1740.56 483.79L1740.64 483.59L1740.71 483.39L1740.8 483.18L1740.88 482.98L1740.97 482.77L1741.07 482.57L1741.16 482.37L1741.26 482.17L1741.37 481.97L1741.47 481.79L1741.58 481.6L1741.68 481.42L1741.79 481.24L1741.91 481.07L1742.02 480.91L1742.13 480.74L1742.25 480.59L1742.36 480.43L1742.48 480.29L1742.6 480.15L1742.72 480.01L1742.84 479.88L1742.96 479.76L1743.08 479.64L1743.2 479.53L1743.32 479.42L1743.44 479.32L1743.56 479.23L1743.67 479.14L1743.79 479.06L1743.91 478.98L1744.03 478.92L1744.14 478.86L1744.26 478.81L1744.37 478.76L1744.48 478.72L1744.59 478.69L1744.7 478.67L1744.8 478.66L1744.91 478.65L1745.01 478.65L1745.11 478.66L1745.2 478.68L1745.3 478.7L1745.39 478.74L1745.48 478.78L1745.56 478.83L1745.64 478.89L1745.71 478.96L1745.78 479.03L1745.85 479.11L1745.91 479.2L1745.96 479.3ZM1739.95 445.54L1739.42 448.52L1736.64 449.93L1739.34 451.17L1739.69 454.13L1741.89 451.92L1744.88 452.34L1743.54 449.73L1745.04 447.03L1742.02 447.63L1739.95 445.54Z" id="fkKt3dCjG"/><path d="M1685.82 475.75C1683.26 500.18 1701 522.09 1725.43 524.66C1749.86 527.23 1771.77 509.48 1774.34 485.05C1776.9 460.63 1759.16 438.71 1734.73 436.15C1710.31 433.58 1688.39 451.33 1685.82 475.75Z" id="c3w9npwZTf"/><radialGradient id="gradienta7M63JD8q" gradientUnits="userSpaceOnUse" cx="1734.06" cy="480.82" dx="1717.66" dy="523.84" r="46.04"><stop style="stop-color: #eaff00;stop-opacity: 1" offset="0%"/><stop style="stop-color: #ffffff;stop-opacity: 0" offset="100%"/></radialGradient></defs><g id="el_x_535rECf2"><g id="el_6pBI-tbEY5"><g id="el_9D4FVWoppM"><use xlink:href="#a4yKaCL0wM" id="el_lLlsiPbSXo"/><g id="el_wj55R6hLHZ"><use xlink:href="#a4yKaCL0wM" id="el_iVFycHsxtN"/></g></g><g id="el_shznvScBms"><use xlink:href="#b2amMvyJAj" id="el_nh818X3a-U"/><g id="el_vkXxCA5gCx"><use xlink:href="#b2amMvyJAj" id="el_meif05kEp-"/></g></g><g id="el_2O-dY_FEfn"><use xlink:href="#cpXzcRkVi" id="el_b3L6Uhqap5"/><g id="el_-rhK3x3ORR"><use xlink:href="#cpXzcRkVi" id="el_-IPUOKsoek"/></g></g><g id="el_dFgPALaSyj"><use xlink:href="#atkol1M6V" id="el__35yCYLrLUy"/><g id="el_V2ylbIIh9NA"><use xlink:href="#atkol1M6V" id="el_uiCmJLmwGNH"/></g></g><g id="el_kD5DbbhpaOF"><use xlink:href="#b1KToPUHZ" id="el_3HNU8hft-nM"/><g id="el_s-ZgkTClrC7"><use xlink:href="#b1KToPUHZ" id="el_l7Jy7ev5Nza"/></g></g><g id="el_OiBrHpmW2eG"><use xlink:href="#c1QpKkC4r2" id="el_ibb7xh-VBMW"/><g id="el_U1bqhdEJPYZ"><use xlink:href="#c1QpKkC4r2" id="el_P7fSJE889Vi"/></g></g><g id="el_wumCSL2qgxO"><g id="el_rlIyTi0y5NC"><use xlink:href="#a29oKp9mN5" id="el_nYqhy1pwNC0"/></g><g id="el_mVUhvFVX1rb"><use xlink:href="#a9OQH9kpg" id="el_UYLoq5xcW2b"/></g><g id="el_rk3IPN3GrDs"><use xlink:href="#a4ZSYY2eg" id="el_AJg72aa3oYP"/></g></g><g id="el_41Z6X0ZBqKQ"><g id="el_6zLeM8nxddZ"><use xlink:href="#cdA1fwYL6" id="el_kY8pUFmLp26"/></g><g id="el_oJhEs0sIR4V"><use xlink:href="#akO9rgj1O" id="el_vnwui-PaYnP"/></g><g id="el_r2h4OGJNmYA"><use xlink:href="#a3jH8RE5Vm" id="el__8XiK1FxkNM"/></g></g><g id="el_KHmWqZslJJL"><g id="el_Jq6v7uTBd7a"><use xlink:href="#c3hLRS9Cx2" id="el_aCYFTW0yuFn"/></g><g id="el_gmoHDQXE1QE"><use xlink:href="#btd5YgB4g" id="el_3S869vwfZA_"/></g><g id="el_VR8tg6jtohh"><use xlink:href="#a3vRI0spbi" id="el_8jZsUeU4pVm"/></g></g><g id="el_D-prFAyF5PH"><g id="el_qYO5w2hAQjz"><use xlink:href="#a1i2HN44Ov" id="el_-eMcPSP20jB"/></g><g id="el_8hKusUo5M-U"><use xlink:href="#aASvbhrPY" id="el_NFldX4J-tYz"/></g><g id="el_my1LnPf3a5K"><use xlink:href="#b3SVLzYfL9" id="el_VU4wAZVKr0V"/></g></g><g id="el_ivwQsqTCviy"><g id="el_Uiqu-lX8h96"><use xlink:href="#b1nB9lEOb" id="el_b8BQK2sGmcr"/></g><g id="el_x54bbs-c8yd"><use xlink:href="#biXMZdHaA" id="el_z6CLu6urFcy"/></g><g id="el_Yb_OlGI2rvp"><use xlink:href="#b7QccuZp62" id="el_xq27xTRUXeu"/></g></g><g id="el_-GG071uzNbX"><g id="el_5CTyn3wOoB-"><use xlink:href="#f1yJhU0Or4" id="el_4aYzXwTo0v0"/></g><g id="el_HHetonGElVp"><use xlink:href="#b2LIElL34V" id="el_WLCzWWS1iEL"/></g><g id="el_fLv0bXa-3S-"><use xlink:href="#a1yaG4aNn" id="el_HnVGoEN0KRV"/></g></g><g id="el_DqW08-v7CJ3"><g id="el_EXOKibHDOMu"><g id="el_9q1xVKL9A9z"><g id="el_tD1bOQWd9hd"><use xlink:href="#b32Nin66xn" id="el_jGUY72mSqAw"/></g><g id="el_B-M1vR1DYRz"><use xlink:href="#a19spYhkog" id="el_DUPnaV_S_Qm"/></g><g id="el_sTsUF3bnPKZ"><use xlink:href="#c6wssD2IVm" id="el_yEWpNUhtQ98"/></g><g id="el_TouK8WcWePg"><use xlink:href="#eIuxm343y" id="el_MkGKrmurLEO"/></g><g id="el_uRF6Iitl2VV"><use xlink:href="#arvDtgL0C" id="el_w31wOLjoA0T"/></g></g><g id="el_NXR2dtIIat_"><g id="el_BvDKu9J_Gjq"><use xlink:href="#aE2rWBKby" id="el_IuRwnxD1dSQ"/></g><g id="el_SSPexzkBzHh"><use xlink:href="#a26cgqaiu" id="el_8ZnXfnNlV1Z"/></g><g id="el_h-FHbqrdz8w"><use xlink:href="#a6dRPceN" id="el_vcqvpGaQNm2"/></g><g id="el_exuvAUAXW-Z"><use xlink:href="#c2ggKJEEP" id="el_3eEC6eweUmK"/></g><g id="el_NZL029rtu76"><use xlink:href="#d3bvYx8QK7" id="el_DiO08vt7wz0"/></g></g></g><g id="el_pVv-4zqOu8v"><g id="el_7F-Emf8z1YS"><use xlink:href="#b7gNwxOn2" id="el_KSyjIsOmAKA"/></g><g id="el_CteVRDVmb3F"><use xlink:href="#asIs3esIN" id="el_VGClFZK7ieF"/></g></g></g><g id="el_AFEhP0pK-2R"><g id="el_ZByU8DCtT6P"><g id="el_13vnL3zM_Sx"><g id="el_Ac9bSyKh8lV"><use xlink:href="#b3dZ5enmmS" id="el_Ete5RlK8mjk"/></g><g id="el_nqdehcJg-dC"><use xlink:href="#dyVvgbHYe" id="el__qKILyGIva2"/></g><g id="el_c3aO1XvtThU"><use xlink:href="#f2Rgey6Py9" id="el_qkW4kwzQFPO"/></g><g id="el_0WqIbaZ-Qdx"><use xlink:href="#b14HPi5QxD" id="el_Z-FMWeBIBGc"/></g><g id="el_QpJ5anMpPvM"><use xlink:href="#bU1b2g8VE" id="el_ALTE7Z8hb3Z"/></g></g><g id="el_QakDYPjjqtb"><g id="el_BGBKMTvM1da"><use xlink:href="#bOVVUdtZ2" id="el_7RV1DLifs3V"/></g><g id="el_LDk0RFhgxQ9"><use xlink:href="#b2Nd0LwdRx" id="el_WLUk-MTfOgi"/></g><g id="el_SK_L7p5FfYp"><use xlink:href="#ca5g61Isui" id="el_pXKmnvkfM8N"/></g><g id="el_rnvCBBVx74D"><use xlink:href="#b2zRjA2VGv" id="el_eHew9qQLxIg"/></g><g id="el_4EP5Xhq5DNF"><use xlink:href="#iJphTRMAW" id="el_7_cicdvYUKX"/></g></g></g><g id="el__elfcdMFp6m"><g id="el_9igO1fHU08H"><use xlink:href="#fkKt3dCjG" id="el_0Db1APz3Rt7"/></g><g id="el_Bput_FBrM60"><use xlink:href="#c3w9npwZTf" id="el_lP2M2rGd-9Y"/></g></g></g></g></g></svg>